<?xml version="1.0" encoding="UTF-8"?>
<svg version="1.1" xmlns="http://www.w3.org/2000/svg" width="500" height="125">
<path d="M0 0 C1.05896484 -0.01224609 2.11792969 -0.02449219 3.20898438 -0.03710938 C4.22927734 -0.03904297 5.24957031 -0.04097656 6.30078125 -0.04296875 C7.23704346 -0.04707764 8.17330566 -0.05118652 9.13793945 -0.05541992 C11.81746443 0.1998829 13.37435662 0.86140533 15.6875 2.1875 C17.43053634 2.8316656 19.18123301 3.45533341 20.9375 4.0625 C22.85522664 4.76795854 24.77194679 5.47616105 26.6875 6.1875 C27.41839844 6.43886719 28.14929688 6.69023437 28.90234375 6.94921875 C36.61150756 10.07868129 41.33265182 17.74119001 44.625 25.125 C45.94646786 28.93393676 46.7947236 32.31085496 46.96875 36.33984375 C47.00613281 37.11650391 47.04351562 37.89316406 47.08203125 38.69335938 C47.13423828 39.89702148 47.13423828 39.89702148 47.1875 41.125 C47.36482896 48.23775994 47.36482896 48.23775994 48.6875 55.1875 C49.3475 55.5175 50.0075 55.8475 50.6875 56.1875 C53.33923009 60.00438422 55.41579112 63.80178469 56.3125 68.375 C55.41324873 72.4216307 53.57909133 74.22706126 50.6875 77.1875 C49.6975 77.6825 49.6975 77.6825 48.6875 78.1875 C49.0175 78.8475 49.3475 79.5075 49.6875 80.1875 C49.80926503 81.99698495 49.86295792 83.81146271 49.875 85.625 C49.88917969 86.59308594 49.90335937 87.56117187 49.91796875 88.55859375 C49.6875 91.1875 49.6875 91.1875 47.6875 94.1875 C48.05598865 96.13624581 48.05598865 96.13624581 48.6875 98.1875 C48.72373466 102.36897996 48.74718837 106.05716574 45.8125 109.1875 C40.95052197 111.47548966 36.22216 111.50460403 30.9609375 111.70507812 C29.19814445 111.79631644 27.44094496 111.98453561 25.6875 112.1875 C25.3575 112.8475 25.0275 113.5075 24.6875 114.1875 C23.2025 114.6825 23.2025 114.6825 21.6875 115.1875 C21.3575 114.1975 21.0275 113.2075 20.6875 112.1875 C21.6875 110.1875 21.6875 110.1875 24.625 109.125 C27.68227304 108.31182841 30.66306379 107.95583761 33.8125 107.6875 C38.9770052 107.24016977 38.9770052 107.24016977 43.6875 105.1875 C44.57443303 103.14644361 44.57443303 103.14644361 44.6875 101.1875 C44.0275 101.1875 43.3675 101.1875 42.6875 101.1875 C42.873125 100.589375 43.05875 99.99125 43.25 99.375 C43.90843687 97.02341238 43.90843687 97.02341238 42.6875 94.1875 C43.10921013 91.37609911 43.78710162 88.88869513 44.6875 86.1875 C45.51241235 83.1353243 45.70280636 81.27083463 45.125 78.125 C44.6875 75.1875 44.6875 75.1875 45.3125 72.875 C47.19107784 70.56947265 48.80205195 70.49123137 51.6875 70.1875 C51.5225 69.56875 51.3575 68.95 51.1875 68.3125 C50.6875 66.1875 50.6875 66.1875 50.6875 64.1875 C49.76625802 62.60284791 48.80070784 61.04377923 47.8125 59.5 C43.84888933 52.92825872 42.60914242 48.05588077 42.75 40.375 C42.85475054 31.39502186 41.33135451 24.05110744 35.53125 17 C26.29448084 7.91978625 13.57825097 4.82844553 1 4.75 C-10.74572051 4.91559465 -21.00729127 7.61794461 -29.98046875 15.6875 C-31.1012639 16.84444983 -32.20850645 18.01450685 -33.3125 19.1875 C-33.9725 19.1875 -34.6325 19.1875 -35.3125 19.1875 C-36.38775194 21.83978812 -37.40706151 24.47118454 -38.3125 27.1875 C-38.9725 27.1875 -39.6325 27.1875 -40.3125 27.1875 C-40.6425 29.8275 -40.9725 32.4675 -41.3125 35.1875 C-41.9725 35.1875 -42.6325 35.1875 -43.3125 35.1875 C-43.6864132 46.80535002 -43.6864132 46.80535002 -41.82421875 58.21484375 C-40.97280614 61.49700688 -40.67974282 64.82110751 -40.3125 68.1875 C-39.6525 68.1875 -38.9925 68.1875 -38.3125 68.1875 C-38.17972656 68.79078125 -38.04695313 69.3940625 -37.91015625 70.015625 C-37.73355469 70.81484375 -37.55695312 71.6140625 -37.375 72.4375 C-37.20097656 73.22640625 -37.02695312 74.0153125 -36.84765625 74.828125 C-36.67105469 75.60671875 -36.49445312 76.3853125 -36.3125 77.1875 C-36.16683594 77.92484375 -36.02117188 78.6621875 -35.87109375 79.421875 C-35.68675781 80.00453125 -35.50242187 80.5871875 -35.3125 81.1875 C-34.6525 81.5175 -33.9925 81.8475 -33.3125 82.1875 C-32.49053708 83.74490343 -31.72817171 85.3340991 -31 86.9375 C-28.92330905 91.14505645 -27.2312815 94.42654031 -23.3125 97.1875 C-19.35399095 98.25352578 -15.85982372 98.86428825 -12.03515625 97.19140625 C-11.46667969 96.86011719 -10.89820313 96.52882813 -10.3125 96.1875 C-10.70219667 92.77765418 -11.16109298 91.35621068 -13.5 88.75 C-15.3125 86.1875 -15.3125 86.1875 -14.8125 83.125 C-13.3125 80.1875 -13.3125 80.1875 -11.25 78.1875 C-8.69699117 75.55213605 -8.46064562 73.8170676 -8.3125 70.1875 C-9.14736387 67.38682935 -9.14736387 67.38682935 -10.3125 65.1875 C-11.3025 65.5175 -12.2925 65.8475 -13.3125 66.1875 C-19.76358489 66.72509041 -22.99828986 65.9074471 -28.3125 62.1875 C-30.3125 59.1875 -30.3125 59.1875 -30.3125 56.1875 C-31.6325 56.1875 -32.9525 56.1875 -34.3125 56.1875 C-36.47898262 54.07970314 -37.23539573 52.7123065 -37.67578125 49.71484375 C-37.65902344 48.86019531 -37.64226563 48.00554688 -37.625 47.125 C-37.62113281 46.26777344 -37.61726563 45.41054688 -37.61328125 44.52734375 C-37.3125 42.1875 -37.3125 42.1875 -35.3125 39.1875 C-34.53200861 36.85828486 -33.86064404 34.51180295 -33.19140625 32.1484375 C-32.90136719 31.50132813 -32.61132812 30.85421875 -32.3125 30.1875 C-31.3225 29.8575 -30.3325 29.5275 -29.3125 29.1875 C-29.209375 28.07375 -29.10625 26.96 -29 25.8125 C-28.773125 24.61625 -28.54625 23.42 -28.3125 22.1875 C-25.3125 20.1875 -25.3125 20.1875 -21.3125 20.1875 C-21.065 19.589375 -20.8175 18.99125 -20.5625 18.375 C-19.08100492 15.78238361 -17.86847647 14.72724486 -15.3125 13.1875 C-12.62109375 12.96484375 -12.62109375 12.96484375 -9.75 13.125 C-5.2542388 13.40566142 -5.2542388 13.40566142 -1.3125 11.1875 C1.02734375 10.921875 1.02734375 10.921875 3.625 10.9375 C4.47964844 10.93234375 5.33429688 10.9271875 6.21484375 10.921875 C8.84423987 11.20433777 10.46412569 11.77488635 12.6875 13.1875 C13.1825 14.1775 13.1825 14.1775 13.6875 15.1875 C15.68037612 15.5800004 15.68037612 15.5800004 18 15.6875 C21.3680405 15.91018036 23.81774327 16.34310297 26.6875 18.1875 C27.368125 19.6415625 27.368125 19.6415625 28.0625 21.125 C29.41393134 24.4379935 29.41393134 24.4379935 32.6875 25.5 C36.14234328 27.44334935 36.29559106 28.06951301 37.4375 31.6875 C37.73914063 32.84765625 37.73914063 32.84765625 38.046875 34.03125 C38.65068477 36.45160338 38.65068477 36.45160338 40.6875 39.1875 C40.70798149 42.63521821 40.23787297 46.08675406 38.6875 49.1875 C38.0275 49.1875 37.3675 49.1875 36.6875 49.1875 C36.419375 49.80625 36.15125 50.425 35.875 51.0625 C34.6875 53.1875 34.6875 53.1875 31.6875 55.1875 C27.29730765 56.4116156 22.99508262 57.26293746 18.4375 57 C14.96088601 57.23704186 13.80176024 58.75349099 11.34375 61.07421875 C8.28745829 63.12856577 5.24552349 62.49422616 1.6875 62.1875 C1.4090625 64.105625 1.4090625 64.105625 1.125 66.0625 C-0.50389014 73.46867674 -5.06606613 79.92231388 -11.3125 84.1875 C-10.0035428 87.30947478 -10.0035428 87.30947478 -7.3125 89.1875 C-5.65254024 95.97824447 -5.65254024 95.97824447 -7.3125 99.1875 C-11.82016027 102.26590213 -16.00581967 103.00877196 -21.3125 102.1875 C-24.8125 100.6875 -24.8125 100.6875 -27.3125 99.1875 C-27.3125 98.5275 -27.3125 97.8675 -27.3125 97.1875 C-28.7975 96.6925 -28.7975 96.6925 -30.3125 96.1875 C-42.48427905 81.75610851 -46.78007552 61.47352695 -47.3125 43.1875 C-47.33957031 42.27484375 -47.36664063 41.3621875 -47.39453125 40.421875 C-47.09454554 31.79371445 -42.52626504 22.67561084 -36.75 16.40625 C-35.07223177 14.87905071 -33.33802914 13.41235272 -31.5625 12 C-29.23762612 10.38440923 -29.23762612 10.38440923 -28.3125 8.1875 C-25.65959167 6.92795032 -23.02030176 5.75325073 -20.3125 4.625 C-12.56187005 1.35561915 -8.54206807 0.00514273 0 0 Z " fill="#F6C5C5" transform="translate(60.3125,3.8125)"/>
<path d="M0 0 C1.9375 2.3125 1.9375 2.3125 3 5 C2.6875 7.3125 2.6875 7.3125 2 9 C1.01 8.67 0.02 8.34 -1 8 C-1.6875 5.9375 -1.6875 5.9375 -2 4 C-12.9472676 2.75599232 -23.49754066 9.77808369 -32 16 C-40.81396351 22.64060885 -40.81396351 22.64060885 -45.29296875 32.23828125 C-45.25816406 32.92277344 -45.22335937 33.60726562 -45.1875 34.3125 C-45.0946875 36.1378125 -45.0946875 36.1378125 -45 38 C-43.2675 38.5259375 -43.2675 38.5259375 -41.5 39.0625 C-30.93193852 42.61310069 -20.54061441 46.70489186 -12 54 C-7.48576669 51.9924417 -3.63439476 48.94482962 0.31054688 46.01367188 C1.82114001 44.93168994 3.40741626 43.95721135 5 43 C5.99 43.33 6.98 43.66 8 44 C7.34 46.97 6.68 49.94 6 53 C6.7425 52.21625 7.485 51.4325 8.25 50.625 C10.54433318 48.43495469 12.12158858 47.17268614 15 46 C15.88042794 49.74181875 16.04250236 53.16416241 16 57 C17.29708314 55.58829091 18.58745978 54.17041804 19.875 52.75 C20.59429687 51.96109375 21.31359375 51.1721875 22.0546875 50.359375 C25.59287487 46.06807947 26.51600266 42.19416874 27.625 36.75 C27.88539063 35.48671875 28.14578125 34.2234375 28.4140625 32.921875 C28.60742188 31.95765625 28.80078125 30.9934375 29 30 C29.99 30 30.98 30 32 30 C32 32.97 32 35.94 32 39 C32.556875 38.319375 33.11375 37.63875 33.6875 36.9375 C34.8321875 35.9784375 34.8321875 35.9784375 36 35 C38.75 35.25 38.75 35.25 41 36 C42.31672944 41.26691775 42.03770813 44.30430326 39.3828125 49.06640625 C37.09403801 52.26681126 34.29835429 54.85525731 31 57 C30.34 57 29.68 57 29 57 C28.89115479 57.6077124 28.78230957 58.2154248 28.67016602 58.84155273 C27.27826565 66.55911144 25.82309214 74.26402949 24.34057617 81.96459961 C24.0688092 83.37907181 23.79832913 84.79379179 23.52905273 86.20874023 C23.13548792 88.27643462 22.73810865 90.3433627 22.33984375 92.41015625 C21.98974243 94.23752319 21.98974243 94.23752319 21.63256836 96.10180664 C21 99 21 99 20 101 C19.01 101 18.02 101 17 101 C17.60744053 92.1604147 19.00880264 83.5297432 20.5625 74.8125 C20.79923957 73.46556704 21.03557026 72.11856215 21.27148438 70.77148438 C21.84365832 67.513596 22.41991133 64.25648673 23 61 C21.515 60.01 21.515 60.01 20 59 C19.01 59.66 18.02 60.32 17 61 C14.3125 60.625 14.3125 60.625 12 60 C11.67 58.35 11.34 56.7 11 55 C10.01 55.66 9.02 56.32 8 57 C5.9375 57 5.9375 57 4 56 C3.27528632 54.02029433 2.60430395 52.01971809 2 50 C1.30132812 50.5775 0.60265625 51.155 -0.1171875 51.75 C-1.02726562 52.4925 -1.93734375 53.235 -2.875 54 C-3.77992188 54.7425 -4.68484375 55.485 -5.6171875 56.25 C-8 58 -8 58 -10 58 C-9.87625 59.0725 -9.7525 60.145 -9.625 61.25 C-9.65700708 70.29200073 -15.77810657 78.71396878 -21.80078125 85.0234375 C-28.2173601 90.79038048 -34.30589445 94 -43 94 C-45 92 -45 92 -45.0625 89.4375 C-41.40023428 77.58899325 -28.58992427 68.23219131 -19.1875 60.9453125 C-16.76044338 59.1126174 -16.76044338 59.1126174 -16 56 C-23.42569446 50.89608602 -31.40396601 47.58585802 -39.77416992 44.33618164 C-46.48242203 41.61842956 -46.48242203 41.61842956 -49.125 38.4609375 C-50.44319498 34.75351413 -50.21384773 31.661887 -49 28 C-47.30922543 25.03690343 -45.25925449 22.54745096 -43 20 C-42.50628906 19.41347656 -42.01257813 18.82695313 -41.50390625 18.22265625 C-32.79131209 8.6409754 -13.55796139 -4.12633607 0 0 Z M36 39 C35.13372601 40.59766103 34.28233535 42.20339944 33.4375 43.8125 C32.96183594 44.70582031 32.48617187 45.59914063 31.99609375 46.51953125 C30.66271667 49.06644576 30.66271667 49.06644576 32 52 C36.09949571 47.69027374 37.63118644 45.14689273 38 39 C37.34 39 36.68 39 36 39 Z M-14 61 C-14.6290625 61.56847656 -15.258125 62.13695312 -15.90625 62.72265625 C-16.7621875 63.49480469 -17.618125 64.26695313 -18.5 65.0625 C-19.87285156 66.30193359 -19.87285156 66.30193359 -21.2734375 67.56640625 C-23.53026505 69.58073801 -25.81662288 71.54569666 -28.125 73.5 C-36.86740645 80.85710156 -36.86740645 80.85710156 -41 91 C-30.42982329 88.37619727 -22.64806962 82.29364183 -17 73 C-15.43353521 70.08067926 -13.91297885 67.19227776 -13 64 C-13.33 63.01 -13.66 62.02 -14 61 Z " fill="#545F83" transform="translate(332,15)"/>
<path d="M0 0 C1.05896484 -0.01224609 2.11792969 -0.02449219 3.20898438 -0.03710938 C4.22927734 -0.03904297 5.24957031 -0.04097656 6.30078125 -0.04296875 C7.23704346 -0.04707764 8.17330566 -0.05118652 9.13793945 -0.05541992 C11.81746443 0.1998829 13.37435662 0.86140533 15.6875 2.1875 C17.43053634 2.8316656 19.18123301 3.45533341 20.9375 4.0625 C22.85522664 4.76795854 24.77194679 5.47616105 26.6875 6.1875 C27.41839844 6.43886719 28.14929688 6.69023437 28.90234375 6.94921875 C36.61150756 10.07868129 41.33265182 17.74119001 44.625 25.125 C45.94646786 28.93393676 46.7947236 32.31085496 46.96875 36.33984375 C47.00613281 37.11650391 47.04351562 37.89316406 47.08203125 38.69335938 C47.13423828 39.89702148 47.13423828 39.89702148 47.1875 41.125 C47.36482896 48.23775994 47.36482896 48.23775994 48.6875 55.1875 C49.3475 55.5175 50.0075 55.8475 50.6875 56.1875 C53.33923009 60.00438422 55.41579112 63.80178469 56.3125 68.375 C55.41324873 72.4216307 53.57909133 74.22706126 50.6875 77.1875 C49.6975 77.6825 49.6975 77.6825 48.6875 78.1875 C49.0175 78.8475 49.3475 79.5075 49.6875 80.1875 C49.80926503 81.99698495 49.86295792 83.81146271 49.875 85.625 C49.88917969 86.59308594 49.90335937 87.56117187 49.91796875 88.55859375 C49.6875 91.1875 49.6875 91.1875 47.6875 94.1875 C48.05598865 96.13624581 48.05598865 96.13624581 48.6875 98.1875 C48.72373466 102.36897996 48.74718837 106.05716574 45.8125 109.1875 C40.95052197 111.47548966 36.22216 111.50460403 30.9609375 111.70507812 C29.19814445 111.79631644 27.44094496 111.98453561 25.6875 112.1875 C25.3575 112.8475 25.0275 113.5075 24.6875 114.1875 C23.2025 114.6825 23.2025 114.6825 21.6875 115.1875 C21.3575 114.1975 21.0275 113.2075 20.6875 112.1875 C21.6875 110.1875 21.6875 110.1875 24.625 109.125 C27.68227304 108.31182841 30.66306379 107.95583761 33.8125 107.6875 C38.9770052 107.24016977 38.9770052 107.24016977 43.6875 105.1875 C44.57443303 103.14644361 44.57443303 103.14644361 44.6875 101.1875 C44.0275 101.1875 43.3675 101.1875 42.6875 101.1875 C42.873125 100.589375 43.05875 99.99125 43.25 99.375 C43.90843687 97.02341238 43.90843687 97.02341238 42.6875 94.1875 C43.10921013 91.37609911 43.78710162 88.88869513 44.6875 86.1875 C45.51241235 83.1353243 45.70280636 81.27083463 45.125 78.125 C44.6875 75.1875 44.6875 75.1875 45.3125 72.875 C47.19107784 70.56947265 48.80205195 70.49123137 51.6875 70.1875 C51.5225 69.56875 51.3575 68.95 51.1875 68.3125 C50.6875 66.1875 50.6875 66.1875 50.6875 64.1875 C49.76625802 62.60284791 48.80070784 61.04377923 47.8125 59.5 C43.84888933 52.92825872 42.60914242 48.05588077 42.75 40.375 C42.85475054 31.39502186 41.33135451 24.05110744 35.53125 17 C26.29448084 7.91978625 13.57825097 4.82844553 1 4.75 C-10.74572051 4.91559465 -21.00729127 7.61794461 -29.98046875 15.6875 C-31.1012639 16.84444983 -32.20850645 18.01450685 -33.3125 19.1875 C-33.9725 19.1875 -34.6325 19.1875 -35.3125 19.1875 C-36.38775194 21.83978812 -37.40706151 24.47118454 -38.3125 27.1875 C-38.9725 27.1875 -39.6325 27.1875 -40.3125 27.1875 C-40.6425 29.8275 -40.9725 32.4675 -41.3125 35.1875 C-41.9725 35.1875 -42.6325 35.1875 -43.3125 35.1875 C-43.6864132 46.80535002 -43.6864132 46.80535002 -41.82421875 58.21484375 C-40.97280614 61.49700688 -40.67974282 64.82110751 -40.3125 68.1875 C-39.6525 68.1875 -38.9925 68.1875 -38.3125 68.1875 C-38.17972656 68.79078125 -38.04695313 69.3940625 -37.91015625 70.015625 C-37.73355469 70.81484375 -37.55695312 71.6140625 -37.375 72.4375 C-37.20097656 73.22640625 -37.02695312 74.0153125 -36.84765625 74.828125 C-36.67105469 75.60671875 -36.49445312 76.3853125 -36.3125 77.1875 C-36.16683594 77.92484375 -36.02117188 78.6621875 -35.87109375 79.421875 C-35.68675781 80.00453125 -35.50242187 80.5871875 -35.3125 81.1875 C-34.6525 81.5175 -33.9925 81.8475 -33.3125 82.1875 C-32.49053708 83.74490343 -31.72817171 85.3340991 -31 86.9375 C-28.92330905 91.14505645 -27.2312815 94.42654031 -23.3125 97.1875 C-19.35399095 98.25352578 -15.85982372 98.86428825 -12.03515625 97.19140625 C-11.46667969 96.86011719 -10.89820313 96.52882813 -10.3125 96.1875 C-10.70219667 92.77765418 -11.16109298 91.35621068 -13.5 88.75 C-15.3125 86.1875 -15.3125 86.1875 -14.8125 83.125 C-13.3125 80.1875 -13.3125 80.1875 -11.25 78.1875 C-8.69699117 75.55213605 -8.46064562 73.8170676 -8.3125 70.1875 C-9.14736387 67.38682935 -9.14736387 67.38682935 -10.3125 65.1875 C-11.3025 65.5175 -12.2925 65.8475 -13.3125 66.1875 C-19.76358489 66.72509041 -22.99828986 65.9074471 -28.3125 62.1875 C-30.3125 59.1875 -30.3125 59.1875 -30.3125 56.1875 C-31.6325 56.1875 -32.9525 56.1875 -34.3125 56.1875 C-36.47898262 54.07970314 -37.23539573 52.7123065 -37.67578125 49.71484375 C-37.65902344 48.86019531 -37.64226563 48.00554688 -37.625 47.125 C-37.62113281 46.26777344 -37.61726563 45.41054688 -37.61328125 44.52734375 C-37.3125 42.1875 -37.3125 42.1875 -35.3125 39.1875 C-34.53200861 36.85828486 -33.86064404 34.51180295 -33.19140625 32.1484375 C-32.90136719 31.50132813 -32.61132812 30.85421875 -32.3125 30.1875 C-31.3225 29.8575 -30.3325 29.5275 -29.3125 29.1875 C-29.209375 28.07375 -29.10625 26.96 -29 25.8125 C-28.773125 24.61625 -28.54625 23.42 -28.3125 22.1875 C-25.3125 20.1875 -25.3125 20.1875 -21.3125 20.1875 C-21.02375 19.56875 -20.735 18.95 -20.4375 18.3125 C-19.3125 16.1875 -19.3125 16.1875 -17.3125 14.1875 C-14.9296875 13.9921875 -14.9296875 13.9921875 -12.1875 14.0625 C-11.27742188 14.08054687 -10.36734375 14.09859375 -9.4296875 14.1171875 C-8.73101562 14.14039063 -8.03234375 14.16359375 -7.3125 14.1875 C-7.3125 14.5175 -7.3125 14.8475 -7.3125 15.1875 C-7.93898437 15.30867188 -8.56546875 15.42984375 -9.2109375 15.5546875 C-10.02820312 15.72226562 -10.84546875 15.88984375 -11.6875 16.0625 C-12.90566406 16.30613281 -12.90566406 16.30613281 -14.1484375 16.5546875 C-16.49923923 17.05408932 -16.49923923 17.05408932 -18.3125 19.1875 C-18.9550235 21.25624034 -18.9550235 21.25624034 -19.3125 23.1875 C-20.9625 23.1875 -22.6125 23.1875 -24.3125 23.1875 C-24.9621875 24.858125 -24.9621875 24.858125 -25.625 26.5625 C-27.3125 30.1875 -27.3125 30.1875 -30.3125 32.1875 C-30.67666047 34.62443311 -30.67666047 34.62443311 -30.5 37.3125 C-30.47292969 38.22257812 -30.44585938 39.13265625 -30.41796875 40.0703125 C-30.38316406 40.76898438 -30.34835938 41.46765625 -30.3125 42.1875 C-31.7975 41.6925 -31.7975 41.6925 -33.3125 41.1875 C-34.89762383 44.35774765 -34.73622144 47.73417028 -34.3125 51.1875 C-32.97891006 53.196745 -32.97891006 53.196745 -31.3125 54.1875 C-29.8275 53.6925 -29.8275 53.6925 -28.3125 53.1875 C-28.065 54.280625 -27.8175 55.37375 -27.5625 56.5 C-26.23271505 60.42286559 -25.79324825 61.2325592 -22.3125 63.1875 C-19.49420117 63.54850534 -19.49420117 63.54850534 -16.5625 63.375 C-15.57765625 63.34792969 -14.5928125 63.32085937 -13.578125 63.29296875 C-12.45664063 63.24076172 -12.45664063 63.24076172 -11.3125 63.1875 C-11.3125 62.1975 -11.3125 61.2075 -11.3125 60.1875 C-10.6525 60.1875 -9.9925 60.1875 -9.3125 60.1875 C-9.044375 61.05375 -8.77625 61.92 -8.5 62.8125 C-7.34138013 66.10541964 -5.93040161 69.09877875 -4.3125 72.1875 C-3.3225 71.1975 -2.3325 70.2075 -1.3125 69.1875 C-1.84571676 75.0528844 -5.21815136 79.43277546 -9.625 83.125 C-10.181875 83.475625 -10.73875 83.82625 -11.3125 84.1875 C-10.0035428 87.30947478 -10.0035428 87.30947478 -7.3125 89.1875 C-5.65254024 95.97824447 -5.65254024 95.97824447 -7.3125 99.1875 C-11.82016027 102.26590213 -16.00581967 103.00877196 -21.3125 102.1875 C-24.8125 100.6875 -24.8125 100.6875 -27.3125 99.1875 C-27.3125 98.5275 -27.3125 97.8675 -27.3125 97.1875 C-28.7975 96.6925 -28.7975 96.6925 -30.3125 96.1875 C-42.48427905 81.75610851 -46.78007552 61.47352695 -47.3125 43.1875 C-47.33957031 42.27484375 -47.36664063 41.3621875 -47.39453125 40.421875 C-47.09454554 31.79371445 -42.52626504 22.67561084 -36.75 16.40625 C-35.07223177 14.87905071 -33.33802914 13.41235272 -31.5625 12 C-29.23762612 10.38440923 -29.23762612 10.38440923 -28.3125 8.1875 C-25.65959167 6.92795032 -23.02030176 5.75325073 -20.3125 4.625 C-12.56187005 1.35561915 -8.54206807 0.00514273 0 0 Z " fill="#929292" transform="translate(60.3125,3.8125)"/>
<path d="M0 0 C0.99 0 1.98 0 3 0 C2.85769192 1.41702513 2.71099254 2.8336096 2.5625 4.25 C2.48128906 5.03890625 2.40007812 5.8278125 2.31640625 6.640625 C2 9 2 9 1 13 C20.8 13.495 20.8 13.495 41 14 C41 15.32 41 16.64 41 18 C27.47 18 13.94 18 0 18 C-6.16233996 44.44856333 -6.16233996 44.44856333 -11.5625 71.0625 C-11.7181543 71.89668457 -11.87380859 72.73086914 -12.03417969 73.59033203 C-12.82993862 78.12348633 -13.0411698 82.3831015 -13 87 C-13.33 87.66 -13.66 88.32 -14 89 C-15.32 88.67 -16.64 88.34 -18 88 C-16.97974817 78.97377205 -15.74950833 70.05266502 -13.96557617 61.14257812 C-13.41404774 58.36471917 -13 55.84205131 -13 53 C-13.51949219 53.6496875 -14.03898437 54.299375 -14.57421875 54.96875 C-15.27160156 55.8040625 -15.96898437 56.639375 -16.6875 57.5 C-17.37199219 58.3353125 -18.05648437 59.170625 -18.76171875 60.03125 C-21 62 -21 62 -23.76953125 62.28125 C-24.87361328 62.14203125 -24.87361328 62.14203125 -26 62 C-27.06630801 56.56959697 -26.79974414 52.4274012 -25.5625 47.0625 C-25.41490234 46.37865234 -25.26730469 45.69480469 -25.11523438 44.99023438 C-24.75412706 43.32448128 -24.37857288 41.66187077 -24 40 C-29.92476318 41.66057207 -29.92476318 41.66057207 -35.1875 44.6875 C-37.7738166 46.56034995 -39.89684547 46.21157872 -43 46 C-43.37125 46.9590625 -43.37125 46.9590625 -43.75 47.9375 C-45 50 -45 50 -46.875 50.875 C-49.51982121 51.03057772 -50.80065516 50.44095007 -53 49 C-54.76597929 45.46804142 -54.04861289 41.71490298 -53 38 C-51.17842443 35.49814466 -49.75588345 34.62110791 -47 33 C-44.6875 33.0625 -44.6875 33.0625 -43 34 C-41.5216774 36.95664519 -41.93967217 39.74229737 -42 43 C-38.25332798 41.3672149 -38.25332798 41.3672149 -35 39 C-34.70467805 37.42105096 -34.43862991 35.83657773 -34.1875 34.25 C-33.34352391 29.88007936 -32.38235941 27.08391593 -29 24 C-26.8125 23.125 -26.8125 23.125 -25 23 C-24 24 -24 24 -23.75 26.6875 C-24.03288135 30.43567794 -25.14982467 32.76219317 -27 36 C-26.443125 35.67 -25.88625 35.34 -25.3125 35 C-22.69715478 33.8690399 -20.8193354 33.84337026 -18 34 C-18.96190697 38.42067886 -19.9423301 42.82006901 -21.125 47.1875 C-21.91519159 50.63047763 -22.17549614 53.49007711 -22 57 C-11.62466818 44.56801957 -7.41764403 32.60877024 -4 17 C-4.99 17.495 -4.99 17.495 -6 18 C-7.52148326 18.08372659 -9.04655778 18.10730027 -10.5703125 18.09765625 C-11.46621094 18.09443359 -12.36210937 18.09121094 -13.28515625 18.08789062 C-14.22230469 18.07951172 -15.15945313 18.07113281 -16.125 18.0625 C-17.06988281 18.05798828 -18.01476562 18.05347656 -18.98828125 18.04882812 C-21.32558387 18.03702357 -23.66276061 18.02055759 -26 18 C-26 17.01 -26 16.02 -26 15 C-18.34916042 13.75088333 -10.72559014 13.90946574 -3 14 C-2.86722656 13.24074219 -2.73445313 12.48148438 -2.59765625 11.69921875 C-2.42105469 10.70535156 -2.24445313 9.71148437 -2.0625 8.6875 C-1.88847656 7.70136719 -1.71445312 6.71523438 -1.53515625 5.69921875 C-1 3 -1 3 0 0 Z M-31 32 C-30 34 -30 34 -30 34 Z M-46 37 C-46.33 37.66 -46.66 38.32 -47 39 C-46.34 39.66 -45.68 40.32 -45 41 C-45.33 39.68 -45.66 38.36 -46 37 Z M-50 41 C-51.01111093 44.04913228 -51.01111093 44.04913228 -50 47 C-48.68 46.67 -47.36 46.34 -46 46 C-47.32 44.35 -48.64 42.7 -50 41 Z M-12 49 C-11 51 -11 51 -11 51 Z " fill="#283764" transform="translate(447,22)"/>
<path d="M0 0 C6.01362235 4.61510552 8.18019729 11.24257092 9.75 18.4375 C10.53316412 29.59758877 10.67243637 41.44163257 4 51 C-0.82145911 56.05262496 -4.61256633 58.13947084 -11.6875 58.375 C-17.71638451 58.31667947 -21.55421591 57.09141 -26 53 C-34.07541296 43.01198924 -33.90312706 29.68270648 -32.76171875 17.4453125 C-31.56326404 10.64196352 -28.28683408 3.31703455 -22.55078125 -0.7265625 C-15.13558851 -4.42848108 -7.20679312 -4.01917308 0 0 Z M-19.72509766 2.28271484 C-24.97994468 9.36095957 -24.4587494 19.13436508 -24.375 27.5 C-24.38660156 28.65886719 -24.39820313 29.81773438 -24.41015625 31.01171875 C-24.38173323 39.39651059 -23.68054184 47.05802671 -18.875 54.125 C-15.45507808 56.35538386 -13.25976769 56.85466484 -9.21875 56.60546875 C-5.91341344 55.7034843 -4.33817612 53.99728917 -2.19140625 51.41015625 C1.57360864 43.7937163 1.33643267 35.37670819 1.3125 27.0625 C1.32861328 25.94681641 1.34472656 24.83113281 1.36132812 23.68164062 C1.36592039 15.84264666 1.02907127 7.76339158 -4.0625 1.4375 C-9.2504164 -2.41159926 -14.91535986 -2.30731298 -19.72509766 2.28271484 Z " fill="#2A3865" transform="translate(192,33)"/>
<path d="M0 0 C2.72624138 1.77522695 4.20461784 2.86661803 5.6875 5.75 C6 8.875 6 8.875 5.6875 11.75 C5.0275 12.41 4.3675 13.07 3.6875 13.75 C2.3675 13.75 1.0475 13.75 -0.3125 13.75 C-0.50585938 13.05132812 -0.69921875 12.35265625 -0.8984375 11.6328125 C-1.28902344 10.26769531 -1.28902344 10.26769531 -1.6875 8.875 C-1.94273437 7.97007813 -2.19796875 7.06515625 -2.4609375 6.1328125 C-3.1729315 3.60430274 -3.1729315 3.60430274 -5.3125 1.75 C-8.81510082 1.59516561 -8.81510082 1.59516561 -12.3125 2.75 C-15.40417023 6.71120248 -15.58370512 9.94966135 -15.02734375 14.72265625 C-13.21893413 19.85142452 -9.48783985 22.51205975 -4.9375 25.125 C0.56254308 28.54414443 5.48478649 31.61953818 7.37109375 38.09765625 C8.26321505 44.04819732 7.54835215 49.41989523 4.6875 54.75 C0.28629411 59.04385941 -2.57857632 59.9178289 -8.625 60 C-9.75550781 60.02578125 -10.88601562 60.0515625 -12.05078125 60.078125 C-16.42316792 59.63826814 -18.95569607 58.01323124 -22.125 55.0625 C-23.95813502 51.49271075 -23.63434749 48.74090891 -23.3125 44.75 C-22.6525 44.09 -21.9925 43.43 -21.3125 42.75 C-19.9925 42.75 -18.6725 42.75 -17.3125 42.75 C-17.14814453 43.76320313 -17.14814453 43.76320313 -16.98046875 44.796875 C-16.82191406 45.68890625 -16.66335937 46.5809375 -16.5 47.5 C-16.34917969 48.38171875 -16.19835937 49.2634375 -16.04296875 50.171875 C-15.23581825 53.02064148 -14.39281812 54.64543575 -12.3125 56.75 C-10.37193459 57.30438371 -10.37193459 57.30438371 -8.3125 57.125 C-7.631875 57.11210938 -6.95125 57.09921875 -6.25 57.0859375 C-3.99310065 56.82913353 -3.99310065 56.82913353 -1.3125 54.75 C0.14575549 50.37523352 0.28180447 46.31826808 -0.3125 41.75 C-3.47515212 36.18809455 -8.33360431 33.76005506 -13.7109375 30.484375 C-17.96110961 27.65092692 -20.67314059 24.66807823 -22.3125 19.75 C-22.84726918 13.77498278 -22.82530722 8.8375139 -19.3125 3.75 C-13.52566414 -1.60282317 -7.35029946 -2.77369791 0 0 Z " fill="#2A3865" transform="translate(146.3125,31.25)"/>
<path d="M0 0 C6.6 0 13.2 0 20 0 C20 0.66 20 1.32 20 2 C18.35 2.33 16.7 2.66 15 3 C14.92387144 9.60189418 14.87136717 16.20367494 14.83520508 22.8059082 C14.82012818 25.05139394 14.79966347 27.29685029 14.77368164 29.54223633 C14.73725082 32.77172099 14.72026245 36.00081594 14.70703125 39.23046875 C14.69154739 40.23272995 14.67606354 41.23499115 14.66011047 42.2676239 C14.62165088 49.14508635 14.62165088 49.14508635 18 55 C21.72579089 57.48386059 23.58711402 57.3804212 28 57 C30.97373902 55.7444213 32.5089404 54.85322405 34.12451172 52.04614258 C35.42609828 47.51744892 35.24466896 43.1368544 35.1953125 38.44921875 C35.1924826 37.43527542 35.18965271 36.42133209 35.18673706 35.37666321 C35.17556625 32.14682073 35.15046711 28.91725829 35.125 25.6875 C35.1149662 23.49414464 35.10584105 21.30078492 35.09765625 19.10742188 C35.07563707 13.73818614 35.04219023 8.36911308 35 3 C32.69 2.67 30.38 2.34 28 2 C28 1.34 28 0.68 28 0 C33.61 0 39.22 0 45 0 C45 0.66 45 1.32 45 2 C43.02 2 41.04 2 39 2 C38.99413376 2.58802399 38.98826752 3.17604797 38.98222351 3.78189087 C38.91817991 9.91431517 38.83373194 16.04622 38.73754883 22.17822266 C38.70433994 24.46526226 38.67629549 26.75238303 38.65356445 29.03955078 C38.6199449 32.33140578 38.56762376 35.62251972 38.51171875 38.9140625 C38.50213387 40.44252304 38.50213387 40.44252304 38.49235535 42.00186157 C38.36260108 48.29839274 37.64461141 52.80442788 33.5 57.8125 C29.02885217 61.3521587 22.36040361 60.39049298 17 60 C12.22048279 58.37837809 9.81066526 56.16394853 7 52 C6.07988873 49.23966618 5.85704625 47.50618538 5.81054688 44.65209961 C5.79382935 43.7778685 5.77711182 42.90363739 5.7598877 42.00291443 C5.74631226 41.0622261 5.73273682 40.12153778 5.71875 39.15234375 C5.70034058 38.18470596 5.68193115 37.21706818 5.66296387 36.22010803 C5.58422773 32.07515588 5.51644883 27.93004091 5.44775391 23.78491211 C5.39609548 20.76147258 5.33882617 17.73817542 5.28125 14.71484375 C5.26088684 13.30077492 5.26088684 13.30077492 5.2401123 11.85813904 C5.21503601 10.55152061 5.21503601 10.55152061 5.18945312 9.21850586 C5.17692505 8.45034042 5.16439697 7.68217499 5.15148926 6.89073181 C5.11161412 4.91126938 5.11161412 4.91126938 4 3 C1.97536745 2.34786708 1.97536745 2.34786708 0 2 C0 1.34 0 0.68 0 0 Z " fill="#243361" transform="translate(206,31)"/>
<path d="M0 0 C6.93 0 13.86 0 21 0 C20 2 20 2 15 4 C14.67 21.82 14.34 39.64 14 58 C27.50267364 58.07093541 27.50267364 58.07093541 33 55 C33.92709868 51.67074822 33.92709868 51.67074822 34.25 47.875 C34.39953125 46.59367187 34.5490625 45.31234375 34.703125 43.9921875 C34.80109375 43.00476563 34.8990625 42.01734375 35 41 C35.66 41 36.32 41 37 41 C37.02717692 43.06242617 37.0464758 45.12495703 37.0625 47.1875 C37.07410156 48.33605469 37.08570313 49.48460937 37.09765625 50.66796875 C37 54 37 54 36 59 C24.12 59 12.24 59 0 59 C3 57 3 57 5 56 C5 38.18 5 20.36 5 2 C3.35 2 1.7 2 0 2 C0 1.34 0 0.68 0 0 Z " fill="#1D2C5C" transform="translate(254,31)"/>
<path d="M0 0 C3.15068668 0.33165123 4.93994188 0.6965628 7.5625 2.375 C8.5525 1.715 9.5425 1.055 10.5625 0.375 C14.0625 0 14.0625 0 17.5625 0.375 C20.13809317 2.53517492 20.4966794 3.94246462 21 7.25 C20.06308865 13.94222393 14.31861902 19.75945592 9.5625 24.375 C8.9025 24.375 8.2425 24.375 7.5625 24.375 C8.66036425 29.78287385 8.66036425 29.78287385 12.5625 33.375 C16.69426264 33.8202354 16.69426264 33.8202354 20.375 32.1875 C21.83788036 29.95468261 22.20755955 28.00155933 22.5625 25.375 C22.954375 25.849375 23.34625 26.32375 23.75 26.8125 C25.97058374 28.72679633 27.69625709 28.98766988 30.5625 29.375 C30.5625 30.035 30.5625 30.695 30.5625 31.375 C29.69625 31.271875 28.83 31.16875 27.9375 31.0625 C24.03721261 31.42363772 22.98448616 32.65045189 20.21875 35.26171875 C17.16245829 37.31606577 14.12052349 36.68172616 10.5625 36.375 C10.43875 36.99375 10.315 37.6125 10.1875 38.25 C9.5625 40.375 9.5625 40.375 7.5625 42.375 C7.65789063 41.76011719 7.75328125 41.14523438 7.8515625 40.51171875 C8.01785156 39.29935547 8.01785156 39.29935547 8.1875 38.0625 C8.30351563 37.26199219 8.41953125 36.46148437 8.5390625 35.63671875 C8.77783407 33.08776785 8.77783407 33.08776785 6.5625 30.375 C6.2840625 28.828125 6.2840625 28.828125 6 27.25 C4.7707628 22.46511802 1.19477281 19.72235323 -2.34375 16.48828125 C-5.26350647 13.54128824 -6.32153366 11.48827683 -6.75 7.375 C-6.22635476 2.3480057 -5.15647291 0.56252432 0 0 Z " fill="#E24A4A" transform="translate(51.4375,29.625)"/>
<path d="M0 0 C0.99 0 1.98 0 3 0 C3 2.97 3 5.94 3 9 C3.8353125 7.9790625 3.8353125 7.9790625 4.6875 6.9375 C5.450625 6.298125 6.21375 5.65875 7 5 C9.75 5.25 9.75 5.25 12 6 C13.31672944 11.26691775 13.03770813 14.30430326 10.3828125 19.06640625 C8.09403801 22.26681126 5.29835429 24.85525731 2 27 C1.34 27 0.68 27 0 27 C-0.16326782 27.9115686 -0.16326782 27.9115686 -0.32983398 28.84155273 C-1.72173435 36.55911144 -3.17690786 44.26402949 -4.65942383 51.96459961 C-4.9311908 53.37907181 -5.20167087 54.79379179 -5.47094727 56.20874023 C-5.86451208 58.27643462 -6.26189135 60.3433627 -6.66015625 62.41015625 C-6.89355713 63.62840088 -7.12695801 64.84664551 -7.36743164 66.10180664 C-8 69 -8 69 -9 71 C-9.99 71 -10.98 71 -12 71 C-11.39255947 62.1604147 -9.99119736 53.5297432 -8.4375 44.8125 C-8.20076043 43.46556704 -7.96442974 42.11856215 -7.72851562 40.77148438 C-7.15634168 37.513596 -6.58008867 34.25648673 -6 31 C-7.65 29.68 -9.3 28.36 -11 27 C-8.1542686 22.20718922 -8.1542686 22.20718922 -6.79296875 20.37890625 C-2.36951113 14.16468331 -1.28133275 7.41714566 0 0 Z M7 9 C6.13372601 10.59766103 5.28233535 12.20339944 4.4375 13.8125 C3.96183594 14.70582031 3.48617188 15.59914063 2.99609375 16.51953125 C1.66271667 19.06644576 1.66271667 19.06644576 3 22 C7.09949571 17.69027374 8.63118644 15.14689273 9 9 C8.34 9 7.68 9 7 9 Z " fill="#32406B" transform="translate(361,45)"/>
<path d="M0 0 C0.99 0 1.98 0 3 0 C3 2.97 3 5.94 3 9 C3.8353125 7.9790625 3.8353125 7.9790625 4.6875 6.9375 C7 5 7 5 9.6875 5.125 C12 6 12 6 13 8 C13.36170336 13.44815684 12.27287101 17.24834687 8.75 21.4375 C6.08395706 24.20248886 3.82047348 26.07382461 0 27 C-0.13140381 28.14597656 -0.26280762 29.29195312 -0.39819336 30.47265625 C-0.94539319 34.84018266 -1.74828346 39.12654531 -2.62890625 43.4375 C-2.78286362 44.20304199 -2.93682098 44.96858398 -3.09544373 45.75732422 C-3.58172586 48.1721113 -4.07203995 50.5860584 -4.5625 53 C-4.89545066 54.64968544 -5.22813542 56.29942457 -5.56054688 57.94921875 C-6.37062815 61.96677248 -7.18432331 65.98357872 -8 70 C-9.98 70.495 -9.98 70.495 -12 71 C-10.95032863 61.48390038 -9.56964904 52.05855581 -7.9375 42.625 C-7.7631543 41.60849365 -7.58880859 40.5919873 -7.40917969 39.54467773 C-7.24192383 38.59407471 -7.07466797 37.64347168 -6.90234375 36.6640625 C-6.75273193 35.81279785 -6.60312012 34.9615332 -6.44897461 34.08447266 C-6 32 -6 32 -5 30 C-5.99 29.67 -6.98 29.34 -8 29 C-7.67 28.01 -7.34 27.02 -7 26 C-6.01 26 -5.02 26 -4 26 C-3.96261719 25.37996094 -3.92523438 24.75992188 -3.88671875 24.12109375 C-3.27760584 15.91598451 -1.72252404 8.02761202 0 0 Z M8 9 C5.18116151 12.08310459 3.16672372 14.96949988 2 19 C2.33 19.99 2.66 20.98 3 22 C6.97185616 17.894534 9.70876501 14.97031739 10 9 C9.34 9 8.68 9 8 9 Z " fill="#33416C" transform="translate(379,45)"/>
<path d="M0 0 C2.625 -0.125 2.625 -0.125 6 1 C13.23349114 9.28625276 14.42924194 19.69826002 14.1875 30.3046875 C13.55407237 39.41020972 11.30791667 46.94780207 5.5 54.0625 C3 56 3 56 0.6875 55.8125 C0.130625 55.544375 -0.42625 55.27625 -1 55 C-0.34 54.34 0.32 53.68 1 53 C4.35568556 44.62617917 4.31871228 35.69345208 4.375 26.8125 C4.38869629 25.70841797 4.40239258 24.60433594 4.41650391 23.46679688 C4.37755803 16.4396979 3.30196829 10.61227873 1 4 C0.65203529 2.67041004 0.31379038 1.33806744 0 0 Z " fill="#273563" transform="translate(188,33)"/>
<path d="M0 0 C0.474375 0.495 0.94875 0.99 1.4375 1.5 C2.75923698 3.11542197 2.75923698 3.11542197 4 3 C4.06058594 4.24136719 4.12117188 5.48273437 4.18359375 6.76171875 C4.26803623 8.40365577 4.35268236 10.04558232 4.4375 11.6875 C4.47681641 12.50412109 4.51613281 13.32074219 4.55664062 14.16210938 C4.80971954 20.15093024 4.80971954 20.15093024 6 26 C6.66 26.33 7.32 26.66 8 27 C10.65173009 30.81688422 12.72829112 34.61428469 13.625 39.1875 C12.72574873 43.2341307 10.89159133 45.03956126 8 48 C7.01 48.495 7.01 48.495 6 49 C6.33 49.66 6.66 50.32 7 51 C7.12176503 52.80948495 7.17545792 54.62396271 7.1875 56.4375 C7.20167969 57.40558594 7.21585938 58.37367187 7.23046875 59.37109375 C7 62 7 62 5 65 C5.36848865 66.94874581 5.36848865 66.94874581 6 69 C6.03623466 73.18147996 6.05968837 76.86966574 3.125 80 C-1.73697803 82.28798966 -6.46534 82.31710403 -11.7265625 82.51757812 C-13.48935555 82.60881644 -15.24655504 82.79703561 -17 83 C-17.495 83.99 -17.495 83.99 -18 85 C-19.485 85.495 -19.485 85.495 -21 86 C-21.33 85.01 -21.66 84.02 -22 83 C-21 81 -21 81 -18.0625 79.9375 C-15.00522696 79.12432841 -12.02443621 78.76833761 -8.875 78.5 C-3.7104948 78.05266977 -3.7104948 78.05266977 1 76 C1.88693303 73.95894361 1.88693303 73.95894361 2 72 C1.34 72 0.68 72 0 72 C0.185625 71.401875 0.37125 70.80375 0.5625 70.1875 C1.22093687 67.83591238 1.22093687 67.83591238 0 65 C0.42171013 62.18859911 1.09960162 59.70119513 2 57 C2.82491235 53.9478243 3.01530636 52.08333463 2.4375 48.9375 C2 46 2 46 2.625 43.6875 C4.50357784 41.38197265 6.11455195 41.30373137 9 41 C8.835 40.38125 8.67 39.7625 8.5 39.125 C8 37 8 37 8 35 C6.57585457 32.55029073 5.0416754 30.18308522 3.5078125 27.80078125 C0.09056576 21.45320116 -0.27215268 15.58621043 -0.125 8.5625 C-0.11597656 7.73556641 -0.10695313 6.90863281 -0.09765625 6.05664062 C-0.07431512 4.03763292 -0.03845288 2.01877644 0 0 Z " fill="#B0B0B0" transform="translate(103,33)"/>
<path d="M0 0 C1.9375 2.3125 1.9375 2.3125 3 5 C2.6875 7.3125 2.6875 7.3125 2 9 C1.01 8.67 0.02 8.34 -1 8 C-1.6875 5.9375 -1.6875 5.9375 -2 4 C-12.9472676 2.75599232 -23.49754066 9.77808369 -32 16 C-39.14046037 21.78794977 -44.89226593 26.47348698 -46 36 C-46.66 34.68 -47.32 33.36 -48 32 C-48.66 33.32 -49.32 34.64 -50 36 C-49.74604836 28.8893541 -47.67216284 25.26815628 -43 20 C-42.50628906 19.41347656 -42.01257813 18.82695313 -41.50390625 18.22265625 C-32.79131209 8.6409754 -13.55796139 -4.12633607 0 0 Z " fill="#697292" transform="translate(332,15)"/>
<path d="M0 0 C0.90492187 0.02320312 1.80984375 0.04640625 2.7421875 0.0703125 C3.65226562 0.08835937 4.56234375 0.10640625 5.5 0.125 C6.19867188 0.14820312 6.89734375 0.17140625 7.6171875 0.1953125 C7.6171875 0.5253125 7.6171875 0.8553125 7.6171875 1.1953125 C6.67746094 1.37707031 6.67746094 1.37707031 5.71875 1.5625 C4.90148437 1.73007812 4.08421875 1.89765625 3.2421875 2.0703125 C2.43007813 2.23273437 1.61796875 2.39515625 0.78125 2.5625 C-1.56955173 3.06190182 -1.56955173 3.06190182 -3.3828125 5.1953125 C-4.025336 7.26405284 -4.025336 7.26405284 -4.3828125 9.1953125 C-6.0328125 9.1953125 -7.6828125 9.1953125 -9.3828125 9.1953125 C-10.0325 10.8659375 -10.0325 10.8659375 -10.6953125 12.5703125 C-12.3828125 16.1953125 -12.3828125 16.1953125 -15.3828125 18.1953125 C-15.74697297 20.63224561 -15.74697297 20.63224561 -15.5703125 23.3203125 C-15.54324219 24.23039062 -15.51617188 25.14046875 -15.48828125 26.078125 C-15.45347656 26.77679688 -15.41867188 27.47546875 -15.3828125 28.1953125 C-16.3728125 27.8653125 -17.3628125 27.5353125 -18.3828125 27.1953125 C-19.96793633 30.36556015 -19.80653394 33.74198278 -19.3828125 37.1953125 C-18.04922256 39.2045575 -18.04922256 39.2045575 -16.3828125 40.1953125 C-14.8978125 39.7003125 -14.8978125 39.7003125 -13.3828125 39.1953125 C-13.1353125 40.2884375 -12.8878125 41.3815625 -12.6328125 42.5078125 C-11.30302755 46.43067809 -10.86356075 47.2403717 -7.3828125 49.1953125 C-4.56451367 49.55631784 -4.56451367 49.55631784 -1.6328125 49.3828125 C-0.64796875 49.35574219 0.336875 49.32867187 1.3515625 49.30078125 C2.47304688 49.24857422 2.47304688 49.24857422 3.6171875 49.1953125 C3.6171875 48.2053125 3.6171875 47.2153125 3.6171875 46.1953125 C4.2771875 46.1953125 4.9371875 46.1953125 5.6171875 46.1953125 C5.8853125 47.0615625 6.1534375 47.9278125 6.4296875 48.8203125 C7.58830737 52.11323214 8.99928589 55.10659125 10.6171875 58.1953125 C11.6071875 57.2053125 12.5971875 56.2153125 13.6171875 55.1953125 C13.06995067 58.56993965 12.5622875 60.2776625 10.6171875 63.1953125 C9.6271875 63.1953125 8.6371875 63.1953125 7.6171875 63.1953125 C7.41802734 62.27298828 7.41802734 62.27298828 7.21484375 61.33203125 C7.03824219 60.52378906 6.86164062 59.71554688 6.6796875 58.8828125 C6.50566406 58.08230469 6.33164062 57.28179687 6.15234375 56.45703125 C5.61832591 54.0499115 5.61832591 54.0499115 4.6171875 51.1953125 C3.1321875 51.6903125 3.1321875 51.6903125 1.6171875 52.1953125 C-4.83389739 52.73290291 -8.06860236 51.9152596 -13.3828125 48.1953125 C-15.3828125 45.1953125 -15.3828125 45.1953125 -15.3828125 42.1953125 C-16.7028125 42.1953125 -18.0228125 42.1953125 -19.3828125 42.1953125 C-21.54929512 40.08751564 -22.30570823 38.720119 -22.74609375 35.72265625 C-22.72933594 34.86800781 -22.71257813 34.01335938 -22.6953125 33.1328125 C-22.69144531 32.27558594 -22.68757813 31.41835938 -22.68359375 30.53515625 C-22.3828125 28.1953125 -22.3828125 28.1953125 -20.3828125 25.1953125 C-19.60232111 22.86609736 -18.93095654 20.51961545 -18.26171875 18.15625 C-17.97167969 17.50914063 -17.68164062 16.86203125 -17.3828125 16.1953125 C-16.3928125 15.8653125 -15.4028125 15.5353125 -14.3828125 15.1953125 C-14.2796875 14.0815625 -14.1765625 12.9678125 -14.0703125 11.8203125 C-13.8434375 10.6240625 -13.6165625 9.4278125 -13.3828125 8.1953125 C-10.3828125 6.1953125 -10.3828125 6.1953125 -6.3828125 6.1953125 C-5.9496875 5.2671875 -5.9496875 5.2671875 -5.5078125 4.3203125 C-4.01503854 1.50062836 -3.27210566 0.26820538 0 0 Z " fill="#867E7D" transform="translate(45.3828125,17.8046875)"/>
<path d="M0 0 C0.85464844 -0.00515625 1.70929688 -0.0103125 2.58984375 -0.015625 C5.21923987 0.26683777 6.83912569 0.83738635 9.0625 2.25 C9.3925 2.91 9.7225 3.57 10.0625 4.25 C12.05537612 4.6425004 12.05537612 4.6425004 14.375 4.75 C17.7430405 4.97268036 20.19274327 5.40560297 23.0625 7.25 C23.743125 8.7040625 23.743125 8.7040625 24.4375 10.1875 C25.78893134 13.5004935 25.78893134 13.5004935 29.0625 14.5625 C32.51734328 16.50584935 32.67059106 17.13201301 33.8125 20.75 C34.11414063 21.91015625 34.11414063 21.91015625 34.421875 23.09375 C35.02568477 25.51410338 35.02568477 25.51410338 37.0625 28.25 C37.08298149 31.69771821 36.61287297 35.14925406 35.0625 38.25 C34.4025 38.25 33.7425 38.25 33.0625 38.25 C32.753125 38.889375 32.44375 39.52875 32.125 40.1875 C31.0625 42.25 31.0625 42.25 30.0625 43.25 C28.20962498 43.32226502 26.35416122 43.3338122 24.5 43.3125 C23.48808594 43.30347656 22.47617188 43.29445312 21.43359375 43.28515625 C20.25990234 43.26775391 20.25990234 43.26775391 19.0625 43.25 C19.3925 42.26 19.7225 41.27 20.0625 40.25 C20.3925 40.91 20.7225 41.57 21.0625 42.25 C25.15947781 41.53757005 25.15947781 41.53757005 29.0625 40.25 C30.65938639 37.76686936 30.65938639 37.76686936 31.0625 35.25 C31.7225 35.25 32.3825 35.25 33.0625 35.25 C33.0625 31.95 33.0625 28.65 33.0625 25.25 C32.0725 24.92 31.0825 24.59 30.0625 24.25 C30.0625 21.94 30.0625 19.63 30.0625 17.25 C28.0825 17.25 26.1025 17.25 24.0625 17.25 C23.629375 16.13625 23.19625 15.0225 22.75 13.875 C21.36338881 10.07487666 21.36338881 10.07487666 18.0625 8.25 C16.0728005 7.85986284 14.07230131 7.51797351 12.0625 7.25 C12.0625 7.91 12.0625 8.57 12.0625 9.25 C11.4025 9.25 10.7425 9.25 10.0625 9.25 C8.70863064 7.59997172 7.37571858 5.9325613 6.0625 4.25 C2.87586274 2.65668137 -0.47763771 2.72140993 -3.9375 3.25 C-6.31469693 5.12501931 -6.31469693 5.12501931 -7.9375 7.25 C-8.5975 7.25 -9.2575 7.25 -9.9375 7.25 C-9.9375 6.26 -9.9375 5.27 -9.9375 4.25 C-9.2775 4.25 -8.6175 4.25 -7.9375 4.25 C-7.9375 3.59 -7.9375 2.93 -7.9375 2.25 C-4.71002945 0.09835297 -3.73244361 -0.02245079 0 0 Z " fill="#827978" transform="translate(63.9375,14.75)"/>
<path d="M0 0 C3.77056169 -0.11798604 7.54063765 -0.18783864 11.3125 -0.25 C12.8912793 -0.30027344 12.8912793 -0.30027344 14.50195312 -0.3515625 C22.14283836 -0.44560416 28.00917375 0.993743 35 4 C35.7542627 4.28045166 36.50852539 4.56090332 37.28564453 4.84985352 C44.96911043 7.728934 48.92816545 15.25186295 52.71875 22.109375 C54.79310899 27.17625187 54.31770995 32.55882742 54.1875 37.9375 C54.16719727 39.53561523 54.16719727 39.53561523 54.14648438 41.16601562 C54.11134724 43.77787588 54.06215184 46.38866634 54 49 C53.67 49 53.34 49 53 49 C52.99742188 47.76765625 52.99484375 46.5353125 52.9921875 45.265625 C52.76745727 32.42352627 50.6977326 22.96375417 42 13 C30.11993376 3.42227218 14.73761777 1.21557686 0 1 C0 0.67 0 0.34 0 0 Z " fill="#787878" transform="translate(52,6)"/>
<path d="M0 0 C5.61 0 11.22 0 17 0 C17 0.66 17 1.32 17 2 C15.02 2 13.04 2 11 2 C10.99413376 2.58802399 10.98826752 3.17604797 10.98222351 3.78189087 C10.91817991 9.91431517 10.83373194 16.04622 10.73754883 22.17822266 C10.70433994 24.46526226 10.67629549 26.75238303 10.65356445 29.03955078 C10.6199449 32.33140578 10.56762376 35.62251972 10.51171875 38.9140625 C10.50213387 40.44252304 10.50213387 40.44252304 10.49235535 42.00186157 C10.36260108 48.29839274 9.64461141 52.80442788 5.5 57.8125 C2.20509501 60.42096645 -1.17958056 60.10559591 -5.1875 60.0625 C-6.81751953 60.04896484 -6.81751953 60.04896484 -8.48046875 60.03515625 C-9.31191406 60.02355469 -10.14335937 60.01195312 -11 60 C-11 59.67 -11 59.34 -11 59 C-10.10796875 58.82984375 -9.2159375 58.6596875 -8.296875 58.484375 C-7.12640625 58.24203125 -5.9559375 57.9996875 -4.75 57.75 C-3.00976562 57.40195313 -3.00976562 57.40195313 -1.234375 57.046875 C2.26803396 55.91324505 3.74055978 54.86195762 6 52 C6.95162372 49.14512885 7.12163139 47.39545683 7.11352539 44.43676758 C7.11341209 43.05567558 7.11341209 43.05567558 7.11329651 41.64668274 C7.10555458 40.16061775 7.10555458 40.16061775 7.09765625 38.64453125 C7.0962413 37.62775803 7.09482635 36.6109848 7.09336853 35.56340027 C7.08776707 32.31307036 7.07521432 29.06280912 7.0625 25.8125 C7.05748519 23.61002704 7.05292225 21.40755299 7.04882812 19.20507812 C7.03779717 13.80336196 7.02105762 8.40168588 7 3 C4.69 2.67 2.38 2.34 0 2 C0 1.34 0 0.68 0 0 Z " fill="#AFB4CA" transform="translate(234,31)"/>
<path d="M0 0 C0.33 0.99 0.66 1.98 1 3 C1.66 3.33 2.32 3.66 3 4 C2.175 4.7425 1.35 5.485 0.5 6.25 C-2.44844853 8.87387385 -2.44844853 8.87387385 -2 13 C-1.01 13.66 -0.02 14.32 1 15 C1.90591044 18.47265668 2.69414401 21.72465491 1 25 C-3.50766027 28.07840213 -7.69331967 28.82127196 -13 28 C-16.5 26.5 -16.5 26.5 -19 25 C-19 24.34 -19 23.68 -19 23 C-19.99 22.67 -20.98 22.34 -22 22 C-23.75 19.625 -23.75 19.625 -25 17 C-24.505 15.515 -24.505 15.515 -24 14 C-19 19 -19 19 -17.25 21.25 C-13.88747985 23.86529345 -10.20884958 24.22229839 -6 24 C-3.77189442 23.08508808 -3.77189442 23.08508808 -2 22 C-2.38969667 18.59015418 -2.84859298 17.16871068 -5.1875 14.5625 C-7 12 -7 12 -6.5 8.9375 C-4.98510281 5.97082634 -3.45289527 4.21551831 -1 2 C-0.67 1.34 -0.34 0.68 0 0 Z " fill="#A3A3A3" transform="translate(52,78)"/>
<path d="M0 0 C0 10.29545455 0 10.29545455 -0.25 14.0625 C-0.31960937 15.34833984 -0.31960937 15.34833984 -0.390625 16.66015625 C-1 19 -1 19 -2.859375 20.74609375 C-7.55583137 23.4971202 -12.44862374 23.31646708 -17.7265625 23.51757812 C-19.48935555 23.60881644 -21.24655504 23.79703561 -23 24 C-23.33 24.66 -23.66 25.32 -24 26 C-24.99 26.33 -25.98 26.66 -27 27 C-27.33 26.01 -27.66 25.02 -28 24 C-27 22 -27 22 -24.0625 20.9375 C-21.00522696 20.12432841 -18.02443621 19.76833761 -14.875 19.5 C-9.7104948 19.05266977 -9.7104948 19.05266977 -5 17 C-4.11306697 14.95894361 -4.11306697 14.95894361 -4 13 C-4.66 13 -5.32 13 -6 13 C-5.814375 12.401875 -5.62875 11.80375 -5.4375 11.1875 C-4.77906313 8.83591238 -4.77906313 8.83591238 -6 6 C-5.6875 3.375 -5.6875 3.375 -5 1 C-3 0 -3 0 0 0 Z " fill="#B6B6B6" transform="translate(109,92)"/>
<path d="M0 0 C1.6875 0.9375 1.6875 0.9375 2.6875 2.9375 C2.72772391 5.2704866 2.73070247 7.60456666 2.6875 9.9375 C4.0075 9.9375 5.3275 9.9375 6.6875 9.9375 C6.6875 10.5975 6.6875 11.2575 6.6875 11.9375 C5.0375 11.9375 3.3875 11.9375 1.6875 11.9375 C1.625625 12.55625 1.56375 13.175 1.5 13.8125 C0.6875 15.9375 0.6875 15.9375 -1.625 17.3125 C-4.3125 17.9375 -4.3125 17.9375 -6.5625 17.1875 C-8.3125 15.9375 -8.3125 15.9375 -9.3125 13.9375 C-9.4863578 10.08995122 -9.36549216 6.38373923 -7.046875 3.19921875 C-4.77765593 1.16494408 -3.10542278 -0.08393035 0 0 Z M-1.3125 3.9375 C-1.6425 4.5975 -1.9725 5.2575 -2.3125 5.9375 C-1.6525 6.5975 -0.9925 7.2575 -0.3125 7.9375 C-0.6425 6.6175 -0.9725 5.2975 -1.3125 3.9375 Z M-5.3125 7.9375 C-6.32361093 10.98663228 -6.32361093 10.98663228 -5.3125 13.9375 C-3.9925 13.6075 -2.6725 13.2775 -1.3125 12.9375 C-2.6325 11.2875 -3.9525 9.6375 -5.3125 7.9375 Z " fill="#35426C" transform="translate(402.3125,55.0625)"/>
<path d="M0 0 C2.16143197 2.3095504 3.00864261 3.41662408 2.9609375 6.63671875 C2.76757812 7.64347656 2.57421875 8.65023437 2.375 9.6875 C2.16875 10.82832031 1.9625 11.96914062 1.75 13.14453125 C1.5025 14.41683594 1.255 15.68914062 1 17 C0.58651776 19.21343465 0.18005456 21.42793618 -0.22021484 23.64379883 C-0.48382749 25.09684828 -0.75462827 26.54861789 -1.03369141 27.9987793 C-1.84742426 32.39701057 -2.03355085 36.53773732 -2 41 C-2.33 41.66 -2.66 42.32 -3 43 C-4.32 42.67 -5.64 42.34 -7 42 C-5.95249597 32.50354895 -4.57323555 23.10037425 -2.9375 13.6875 C-2.7631543 12.67937256 -2.58880859 11.67124512 -2.40917969 10.63256836 C-1.1311394 3.39341821 -1.1311394 3.39341821 0 0 Z " fill="#5C6689" transform="translate(436,68)"/>
<path d="M0 0 C1.32 0 2.64 0 4 0 C4.16435547 1.01320313 4.16435547 1.01320313 4.33203125 2.046875 C4.49058594 2.93890625 4.64914063 3.8309375 4.8125 4.75 C4.96332031 5.63171875 5.11414063 6.5134375 5.26953125 7.421875 C6.07619176 10.26891211 6.92362618 11.89451814 9 14 C13.58314214 14.43648973 17.05491442 14.63005705 21 12 C21 12.66 21 13.32 21 14 C21.66 14.33 22.32 14.66 23 15 C19.50231017 17.14650403 16.62648263 17.29840526 12.5625 17.3125 C10.89380859 17.33763672 10.89380859 17.33763672 9.19140625 17.36328125 C4.88217376 16.87275662 2.31876601 15.22781663 -0.8125 12.3125 C-2.64563502 8.74271075 -2.32184749 5.99090891 -2 2 C-1.34 1.34 -0.68 0.68 0 0 Z " fill="#3D4A73" transform="translate(125,74)"/>
<path d="M0 0 C2.5625 0.25 2.5625 0.25 5 1 C6.79107643 4.58215287 6.08584516 8.2413052 5 12 C2.33516505 16.08608026 -0.30995265 19.43665088 -5 21 C-5.66 20.01 -6.32 19.02 -7 18 C-6.01 16.515 -6.01 16.515 -5 15 C-4.34 15 -3.68 15 -3 15 C0.20614467 11.59347128 1.74809374 8.48599743 3 4 C0.35247996 6.57784846 -1.94432065 8.91648098 -4 12 C-4.33 11.34 -4.66 10.68 -5 10 C-5.66 10.66 -6.32 11.32 -7 12 C-6.65033486 6.58019034 -6.65033486 6.58019034 -6 4 C-4.0625 2.625 -4.0625 2.625 -2 2 C-1.34 1.34 -0.68 0.68 0 0 Z " fill="#5B6588" transform="translate(386,50)"/>
<path d="M0 0 C0.33 0 0.66 0 1 0 C2.34844868 5.6556294 3.36934845 11.2190275 4 17 C4.66 17 5.32 17 6 17 C6.13277344 17.60328125 6.26554687 18.2065625 6.40234375 18.828125 C6.57894531 19.62734375 6.75554688 20.4265625 6.9375 21.25 C7.11152344 22.03890625 7.28554688 22.8278125 7.46484375 23.640625 C7.64144531 24.41921875 7.81804688 25.1978125 8 26 C8.21849609 27.10601562 8.21849609 27.10601562 8.44140625 28.234375 C8.62574219 28.81703125 8.81007813 29.3996875 9 30 C9.66 30.33 10.32 30.66 11 31 C11.73075648 33.3140622 12.40138258 35.64828869 13 38 C11.515 38.495 11.515 38.495 10 39 C-3.16096891 14.19017351 -3.16096891 14.19017351 -2 2 C-1.34 1.34 -0.68 0.68 0 0 Z " fill="#A2A2A2" transform="translate(16,55)"/>
<path d="M0 0 C3.41021743 0.78697325 6.68885166 1.87119943 10 3 C9.67 3.99 9.34 4.98 9 6 C8.34 6 7.68 6 7 6 C7.061875 7.175625 7.12375 8.35125 7.1875 9.5625 C7.21144173 14.03960301 5.9879056 17.0241888 4 21 C3.01 21 2.02 21 1 21 C1.66 17.37 2.32 13.74 3 10 C2.071875 10.845625 1.14375 11.69125 0.1875 12.5625 C-1.39453125 14.00390625 -1.39453125 14.00390625 -3 15 C-3.99 14.67 -4.98 14.34 -6 14 C-5.48308594 13.49210937 -4.96617187 12.98421875 -4.43359375 12.4609375 C-0.07529649 8.21399381 -0.07529649 8.21399381 0.9375 2.5 C0.628125 1.675 0.31875 0.85 0 0 Z " fill="#4A567C" transform="translate(315,67)"/>
<path d="M0 0 C2.72624138 1.77522695 4.20461784 2.86661803 5.6875 5.75 C6 8.875 6 8.875 5.6875 11.75 C5.0275 12.41 4.3675 13.07 3.6875 13.75 C2.3675 13.75 1.0475 13.75 -0.3125 13.75 C-0.50585938 13.05132812 -0.69921875 12.35265625 -0.8984375 11.6328125 C-1.15882813 10.72273438 -1.41921875 9.81265625 -1.6875 8.875 C-1.94273437 7.97007813 -2.19796875 7.06515625 -2.4609375 6.1328125 C-3.1729315 3.60430274 -3.1729315 3.60430274 -5.3125 1.75 C-7.6556213 2.00561323 -9.99093403 2.34270772 -12.3125 2.75 C-15.3125 2.75 -15.3125 2.75 -17.3125 1.75 C-11.29717365 -1.85919581 -6.51423843 -2.45820318 0 0 Z " fill="#37446F" transform="translate(146.3125,31.25)"/>
<path d="M0 0 C0.33 0 0.66 0 1 0 C1.03996094 0.61746094 1.07992187 1.23492187 1.12109375 1.87109375 C2.12455265 10.01026038 5.95510584 13.76710655 12 19 C14 21 14 21 14.4375 24.5 C14.7159375 26.2325 14.7159375 26.2325 15 28 C18.46923881 30.31282587 19.92205575 30.42478586 24 30 C26.53785617 28.33726664 26.9318384 27.26644989 27.6875 24.3125 C27.790625 23.549375 27.89375 22.78625 28 22 C28.391875 22.474375 28.78375 22.94875 29.1875 23.4375 C31.40808374 25.35179633 33.13375709 25.61266988 36 26 C36 26.66 36 27.32 36 28 C35.13375 27.896875 34.2675 27.79375 33.375 27.6875 C29.47471261 28.04863772 28.42198616 29.27545189 25.65625 31.88671875 C22.59995829 33.94106577 19.55802349 33.30672616 16 33 C15.87625 33.61875 15.7525 34.2375 15.625 34.875 C15 37 15 37 13 39 C13.09539063 38.38511719 13.19078125 37.77023438 13.2890625 37.13671875 C13.45535156 35.92435547 13.45535156 35.92435547 13.625 34.6875 C13.74101563 33.88699219 13.85703125 33.08648437 13.9765625 32.26171875 C14.21533407 29.71276785 14.21533407 29.71276785 12 27 C11.7215625 25.453125 11.7215625 25.453125 11.4375 23.875 C10.2082628 19.09011802 6.63227281 16.34735323 3.09375 13.11328125 C0.07270342 10.06405326 -0.9355831 8.09508728 -1.1875 3.8125 C-1 1 -1 1 0 0 Z " fill="#745D5C" transform="translate(46,33)"/>
<path d="M0 0 C0.33 0.66 0.66 1.32 1 2 C1.66 2 2.32 2 3 2 C-0.02411803 10.60361579 -6.70480054 16.58702414 -14.5234375 20.98046875 C-18.24233498 22.51143443 -21.03120149 22.44097761 -25 22 C-24.01 21.67 -23.02 21.34 -22 21 C-22 20.34 -22 19.68 -22 19 C-21.35933594 18.70867187 -20.71867187 18.41734375 -20.05859375 18.1171875 C-10.74657197 13.70403858 -4.99405102 9.06753964 0 0 Z " fill="#5D678A" transform="translate(315,86)"/>
<path d="M0 0 C1.9375 2.3125 1.9375 2.3125 3 5 C2.6875 7.3125 2.6875 7.3125 2 9 C1.01 8.67 0.02 8.34 -1 8 C-1.6875 5.9375 -1.6875 5.9375 -2 4 C-8.27401632 3.2870436 -12.58631034 5.33035753 -18.23046875 8.00390625 C-21.10889211 9.0391643 -22.21171983 9.11131931 -25 8 C-25 7.34 -25 6.68 -25 6 C-7.27365387 -2.53732112 -7.27365387 -2.53732112 0 0 Z " fill="#525E82" transform="translate(332,15)"/>
<path d="M0 0 C0.9583374 0.00523682 1.9166748 0.01047363 2.90405273 0.01586914 C4.45576172 0.02070312 4.45576172 0.02070312 6.03881836 0.02563477 C7.12743164 0.03401367 8.21604492 0.04239258 9.33764648 0.05102539 C10.97636719 0.05779297 10.97636719 0.05779297 12.64819336 0.06469727 C15.35723144 0.07652713 18.06616248 0.09300996 20.77514648 0.11352539 C19.77514648 2.11352539 19.77514648 2.11352539 16.77514648 4.11352539 C14.23334437 4.34145089 11.75824074 4.47998009 9.21264648 4.55102539 C-0.06031519 4.96973039 -7.79812743 7.26654174 -16.22485352 11.11352539 C-16.22485352 10.45352539 -16.22485352 9.79352539 -16.22485352 9.11352539 C-17.21485352 9.44352539 -18.20485352 9.77352539 -19.22485352 10.11352539 C-19.22485352 9.45352539 -19.22485352 8.79352539 -19.22485352 8.11352539 C-18.08145508 7.61981445 -16.93805664 7.12610352 -15.76000977 6.61743164 C-14.26907051 5.97042027 -12.77818802 5.32327809 -11.28735352 4.67602539 C-10.53260742 4.35053711 -9.77786133 4.02504883 -9.00024414 3.68969727 C-0.58655089 0.02992935 -0.58655089 0.02992935 0 0 Z " fill="#A3A3A3" transform="translate(51.224853515625,3.886474609375)"/>
<path d="M0 0 C0.99 0 1.98 0 3 0 C3 2.97 3 5.94 3 9 C3.8353125 7.9790625 3.8353125 7.9790625 4.6875 6.9375 C5.450625 6.298125 6.21375 5.65875 7 5 C9.75 5.25 9.75 5.25 12 6 C12.33 8.31 12.66 10.62 13 13 C12.67 11.68 12.34 10.36 12 9 C11.34 9 10.68 9 10 9 C10 10.65 10 12.3 10 14 C9.67 14 9.34 14 9 14 C9 12.35 9 10.7 9 9 C5.63408573 11.72478774 4.55773724 15.06856792 3 19 C2.67 18.01 2.34 17.02 2 16 C1.34 16 0.68 16 0 16 C0.185625 15.21625 0.37125 14.4325 0.5625 13.625 C1.25962266 11.02910225 1.25962266 11.02910225 0 9 C-0.66 9.99 -1.32 10.98 -2 12 C-1.85831863 10.56208484 -1.71148957 9.1246763 -1.5625 7.6875 C-1.48128906 6.88699219 -1.40007812 6.08648437 -1.31640625 5.26171875 C-1 3 -1 3 0 0 Z " fill="#666F90" transform="translate(361,45)"/>
<path d="M0 0 C0.474375 0.495 0.94875 0.99 1.4375 1.5 C2.75923698 3.11542197 2.75923698 3.11542197 4 3 C4.06058594 4.24136719 4.12117188 5.48273437 4.18359375 6.76171875 C4.26803623 8.40365577 4.35268236 10.04558232 4.4375 11.6875 C4.47681641 12.50412109 4.51613281 13.32074219 4.55664062 14.16210938 C4.80971954 20.15093024 4.80971954 20.15093024 6 26 C6.66 26.33 7.32 26.66 8 27 C9.6875 29.4375 9.6875 29.4375 11 32 C10.67 32.66 10.34 33.32 10 34 C9.01 34 8.02 34 7 34 C2.91097983 27.31001287 0.03631958 21.89345522 0 14 C-0.01417969 12.78828125 -0.02835937 11.5765625 -0.04296875 10.328125 C-0.06025714 6.88427767 -0.04408509 3.44353531 0 0 Z " fill="#AFAFAF" transform="translate(103,33)"/>
<path d="M0 0 C0.66 0.66 1.32 1.32 2 2 C1.67515428 5.51424002 -0.00728037 7.61724218 -2.25 10.25 C-2.83265625 10.95640625 -3.4153125 11.6628125 -4.015625 12.390625 C-6.49665291 14.40279724 -7.88630052 14.32210684 -11 14 C-11.83796731 9.34462607 -12.0161692 5.62921525 -11 1 C-10.67 1.99 -10.34 2.98 -10 4 C-9.34 4 -8.68 4 -8 4 C-7.67 5.65 -7.34 7.3 -7 9 C-4.69 6.03 -2.38 3.06 0 0 Z " fill="#646E8F" transform="translate(432,70)"/>
<path d="M0 0 C13.53 0 27.06 0 41 0 C41 1.32 41 2.64 41 4 C27.14 4 13.28 4 -1 4 C-0.67 2.68 -0.34 1.36 0 0 Z " fill="#5F6A8B" transform="translate(447,36)"/>
<path d="M0 0 C3.7837986 1.26340394 5.79437119 2.44627031 8.125 5.6875 C8.84042969 6.65236328 8.84042969 6.65236328 9.5703125 7.63671875 C14.00209024 14.96247158 14.39276828 20.45834091 14.1875 28.9375 C14.17396484 30.00291016 14.16042969 31.06832031 14.14648438 32.16601562 C14.11134724 34.77787588 14.06215184 37.38866634 14 40 C13.67 40 13.34 40 13 40 C12.99613281 38.15148438 12.99613281 38.15148438 12.9921875 36.265625 C12.81133281 25.81412738 11.85512464 17.96439772 6 9 C5.14341797 7.65035156 5.14341797 7.65035156 4.26953125 6.2734375 C2.88587487 4.15029731 1.46981967 2.06400209 0 0 Z " fill="#707070" transform="translate(92,15)"/>
<path d="M0 0 C5.61 0 11.22 0 17 0 C17 0.66 17 1.32 17 2 C15.02 2 13.04 2 11 2 C10.67 16.19 10.34 30.38 10 45 C9.67 45 9.34 45 9 45 C8.97494385 43.7632251 8.9498877 42.5264502 8.92407227 41.25219727 C8.83017747 36.68063287 8.72991371 32.10922682 8.62768555 27.5378418 C8.58426856 25.55610854 8.54259863 23.57433622 8.50268555 21.5925293 C8.44514617 18.7503683 8.38140555 15.90840517 8.31640625 13.06640625 C8.29969376 12.17474258 8.28298126 11.28307892 8.26576233 10.36439514 C8.563413 6.36051605 8.563413 6.36051605 7 3 C4.67182036 2.63239269 2.3381615 2.29758419 0 2 C0 1.34 0 0.68 0 0 Z " fill="#5B6588" transform="translate(234,31)"/>
<path d="M0 0 C0.33 1.32 0.66 2.64 1 4 C-2.00166801 6.61289776 -3.79627311 7.36930244 -7.765625 7.29296875 C-8.65507812 7.28330078 -9.54453125 7.27363281 -10.4609375 7.26367188 C-11.38132812 7.23853516 -12.30171875 7.21339844 -13.25 7.1875 C-14.18585938 7.17396484 -15.12171875 7.16042969 -16.0859375 7.14648438 C-18.39121327 7.11119954 -20.6953106 7.06190281 -23 7 C-23 6.01 -23 5.02 -23 4 C-15.34916042 2.75088333 -7.72559014 2.90946574 0 3 C0 2.01 0 1.02 0 0 Z " fill="#616B8C" transform="translate(444,33)"/>
<path d="M0 0 C0.99 0.33 1.98 0.66 3 1 C3.383042 6.23490729 2.3382052 9.41352057 0 14 C-0.99 14.495 -0.99 14.495 -2 15 C-2 14.34 -2 13.68 -2 13 C-2.99 13 -3.98 13 -5 13 C-4.67 11.68 -4.34 10.36 -4 9 C-4.66 8.67 -5.32 8.34 -6 8 C-4.75237172 4.15314615 -3.6129609 1.97070595 0 0 Z " fill="#4E5A7F" transform="translate(420,45)"/>
<path d="M0 0 C0.66 0 1.32 0 2 0 C2.08927756 3.21399233 1.8534403 5.9062789 1 9 C1 9.66 1 10.32 1 11 C1.99 10.34 2.98 9.68 4 9 C4.99 9 5.98 9 7 9 C7 10.32 7 11.64 7 13 C4.75 14.125 4.75 14.125 2 15 C-0.25 14.25 -0.25 14.25 -2 13 C-3.23621824 10.52756353 -2.98408601 9.22682061 -2.6875 6.5 C-2.60886719 5.7059375 -2.53023438 4.911875 -2.44921875 4.09375 C-2 2 -2 2 0 0 Z " fill="#4E597F" transform="translate(396,58)"/>
<path d="M0 0 C0.66 0 1.32 0 2 0 C2.4596998 5.74624746 1.67500704 8.55130726 -2 13 C-3.93263251 14.79122037 -5.91050254 16.38538833 -8 18 C-8.66 17.67 -9.32 17.34 -10 17 C-9.67 14.69 -9.34 12.38 -9 10 C-8.34 10.66 -7.68 11.32 -7 12 C-4.22999175 8.67913229 -4.22999175 8.67913229 -2 5 C-1.34 5 -0.68 5 0 5 C0 3.35 0 1.7 0 0 Z " fill="#5D6789" transform="translate(371,54)"/>
<path d="M0 0 C0.33 0 0.66 0 1 0 C1 1.65 1 3.3 1 5 C1.66 5 2.32 5 3 5 C2.22095672 16.52164009 2.22095672 16.52164009 0 22 C-0.99 22 -1.98 22 -3 22 C-2.68905914 19.45813394 -2.37629464 16.91651402 -2.0625 14.375 C-1.97548828 13.66214844 -1.88847656 12.94929688 -1.79882812 12.21484375 C-1.29217395 8.12408039 -0.7110957 4.06157365 0 0 Z " fill="#4C577D" transform="translate(370,94)"/>
<path d="M0 0 C0.66 0.33 1.32 0.66 2 1 C1.48517081 6.852795 0.54642808 12.3297637 -1 18 C-1.99 18 -2.98 18 -4 18 C-2.89394866 4.77444988 -2.89394866 4.77444988 -2 1 C-1.34 0.67 -0.68 0.34 0 0 Z " fill="#404C74" transform="translate(353,98)"/>
<path d="M0 0 C0.33 0.99 0.66 1.98 1 3 C1.66 3.33 2.32 3.66 3 4 C2.175 4.7425 1.35 5.485 0.5 6.25 C-2.44844853 8.87387385 -2.44844853 8.87387385 -2 13 C-1.01 13.66 -0.02 14.32 1 15 C0.67 15.66 0.34 16.32 0 17 C-3 17 -3 17 -5.3125 14.875 C-7 12 -7 12 -6.5 8.9375 C-4.98510281 5.97082634 -3.45289527 4.21551831 -1 2 C-0.67 1.34 -0.34 0.68 0 0 Z " fill="#9B9B9B" transform="translate(52,78)"/>
<path d="M0 0 C-0.99 0.66 -1.98 1.32 -3 2 C-4.34386088 1.71202981 -5.6757713 1.36784131 -7 1 C-11.25425693 0.77209338 -14.35008475 0.66405424 -18 3 C-18 2.34 -18 1.68 -18 1 C-20.64 3.31 -23.28 5.62 -26 8 C-26 5 -26 5 -23.875 2.4375 C-16.96190947 -3.42359849 -8.14004929 -3.3395074 0 0 Z " fill="#6A7393" transform="translate(191,32)"/>
<path d="M0 0 C0.66 0.33 1.32 0.66 2 1 C1.67 1.99 1.34 2.98 1 4 C0.96045766 6.33299825 0.95598268 8.66708189 1 11 C0.67 11 0.34 11 0 11 C-0.33 9.35 -0.66 7.7 -1 6 C-5.455 8.97 -5.455 8.97 -10 12 C-10.99 11.34 -11.98 10.68 -13 10 C-8.71 6.7 -4.42 3.4 0 0 Z " fill="#525D82" transform="translate(335,59)"/>
<path d="M0 0 C0.99 0.33 1.98 0.66 3 1 C2.36934845 6.7809725 1.34844868 12.3443706 0 18 C-0.66 17.67 -1.32 17.34 -2 17 C-2.66 17.99 -3.32 18.98 -4 20 C-3.42978625 13.04339229 -1.98697306 6.68572695 0 0 Z " fill="#5B6588" transform="translate(443,39)"/>
<path d="M0 0 C0.33 0 0.66 0 1 0 C0.67 8.25 0.34 16.5 0 25 C-3.95882474 17.08235051 -3.25654514 10.35975602 -0.69140625 2.0546875 C-0.46324219 1.37664063 -0.23507812 0.69859375 0 0 Z " fill="#737373" transform="translate(16,36)"/>
<path d="M0 0 C0.66 0 1.32 0 2 0 C2.02717692 2.06242617 2.0464758 4.12495703 2.0625 6.1875 C2.07410156 7.33605469 2.08570313 8.48460938 2.09765625 9.66796875 C2.01192832 12.59300586 1.67849023 15.16316291 1 18 C-1.31 17.67 -3.62 17.34 -6 17 C-5.36578125 16.65324219 -4.7315625 16.30648437 -4.078125 15.94921875 C-1.10967348 13.16490051 -1.1887623 10.79792425 -0.75 6.8125 C-0.60046875 5.54019531 -0.4509375 4.26789063 -0.296875 2.95703125 C-0.19890625 1.98121094 -0.1009375 1.00539063 0 0 Z " fill="#667091" transform="translate(289,72)"/>
<path d="M0 0 C1.55078125 1.578125 1.55078125 1.578125 3 4 C2.85546875 7.234375 2.85546875 7.234375 2.1875 10.75 C1.86845703 12.50570312 1.86845703 12.50570312 1.54296875 14.296875 C1.36378906 15.18890625 1.18460937 16.0809375 1 17 C0.34 16.67 -0.32 16.34 -1 16 C-1.66 16.99 -2.32 17.98 -3 19 C-2.37679879 12.56025419 -1.35991738 6.32427599 0 0 Z " fill="#626C8E" transform="translate(436,68)"/>
<path d="M0 0 C0.99 0 1.98 0 3 0 C3.56131481 6.45512034 1.63463787 11.15439723 -1 17 C-1.33 17 -1.66 17 -2 17 C-1.85848172 14.9163691 -1.71162064 12.83310062 -1.5625 10.75 C-1.48128906 9.58984375 -1.40007812 8.4296875 -1.31640625 7.234375 C-1.06752213 4.69022624 -0.71885058 2.44046752 0 0 Z " fill="#22305F" transform="translate(379,45)"/>
<path d="M0 0 C0.33 0.66 0.66 1.32 1 2 C1.66 2.33 2.32 2.66 3 3 C2.360625 3.86625 1.72125 4.7325 1.0625 5.625 C-0.97548296 8.9598812 -1.63433093 11.16047478 -2 15 C-2.66 13.68 -3.32 12.36 -4 11 C-4.66 12.32 -5.32 13.64 -6 15 C-5.65021857 8.35415281 -4.19522328 5.16335173 0 0 Z " fill="#646E8F" transform="translate(288,36)"/>
<path d="M0 0 C0.33 0 0.66 0 1 0 C1.125 6.75 1.125 6.75 0 9 C-0.66 9 -1.32 9 -2 9 C-2.309375 9.639375 -2.61875 10.27875 -2.9375 10.9375 C-4 13 -4 13 -5 14 C-6.85287502 14.07226502 -8.70833878 14.0838122 -10.5625 14.0625 C-11.57441406 14.05347656 -12.58632812 14.04445313 -13.62890625 14.03515625 C-14.41136719 14.02355469 -15.19382812 14.01195312 -16 14 C-15.67 13.01 -15.34 12.02 -15 11 C-14.67 11.66 -14.34 12.32 -14 13 C-9.90302219 12.28757005 -9.90302219 12.28757005 -6 11 C-4.40311361 8.51686936 -4.40311361 8.51686936 -4 6 C-3.34 6 -2.68 6 -2 6 C-1.34 4.02 -0.68 2.04 0 0 Z " fill="#76706E" transform="translate(99,44)"/>
<path d="M0 0 C2.125 0.375 2.125 0.375 4 1 C3.01 1.33 2.02 1.66 1 2 C1.66 2.66 2.32 3.32 3 4 C2.21625 4.763125 1.4325 5.52625 0.625 6.3125 C-2.07257717 8.90891805 -2.07257717 8.90891805 -4 12 C-4.33 11.34 -4.66 10.68 -5 10 C-5.66 10.66 -6.32 11.32 -7 12 C-6.65033486 6.58019034 -6.65033486 6.58019034 -6 4 C-4.0625 2.625 -4.0625 2.625 -2 2 C-1.34 1.34 -0.68 0.68 0 0 Z " fill="#5E688B" transform="translate(386,50)"/>
<path d="M0 0 C2.9375 1 2.9375 1 4.875 3.3125 C6.00596818 6.17318422 6.07619156 7.2050298 4.9375 10 C3.9475 9.67 2.9575 9.34 1.9375 9 C1.6075 7.02 1.2775 5.04 0.9375 3 C-1.7025 3 -4.3425 3 -7.0625 3 C-4.58943995 0.62205764 -3.49262016 0 0 0 Z " fill="#35426D" transform="translate(329.0625,14)"/>
<path d="M0 0 C1.27230469 0.00902344 2.54460937 0.01804687 3.85546875 0.02734375 C5.31919922 0.04474609 5.31919922 0.04474609 6.8125 0.0625 C3.09094229 2.17450529 -0.05797298 2.44354569 -4.26171875 2.71875 C-5.21498047 2.88890625 -5.21498047 2.88890625 -6.1875 3.0625 C-6.5175 3.7225 -6.8475 4.3825 -7.1875 5.0625 C-8.1775 5.3925 -9.1675 5.7225 -10.1875 6.0625 C-10.5175 5.0725 -10.8475 4.0825 -11.1875 3.0625 C-9.07664535 -1.15920929 -4.12352068 -0.03783046 0 0 Z " fill="#848484" transform="translate(92.1875,112.9375)"/>
<path d="M0 0 C3 1 3 1 4 3 C4.45283019 8.32075472 4.45283019 8.32075472 2.75 10.875 C1 12 1 12 -3 12 C-2.67 11.01 -2.34 10.02 -2 9 C-1.34 8.67 -0.68 8.34 0 8 C-0.185625 7.4225 -0.37125 6.845 -0.5625 6.25 C-1.04023546 3.79307475 -0.75729364 2.35602466 0 0 Z " fill="#A2A2A2" transform="translate(112,66)"/>
<path d="M0 0 C1.32 0 2.64 0 4 0 C4.33 1.65 4.66 3.3 5 5 C6.65 3.68 8.3 2.36 10 1 C9.67 1.598125 9.34 2.19625 9 2.8125 C7.79212012 5.05386471 7.79212012 5.05386471 8 8 C6.02 8.33 4.04 8.66 2 9 C0 2.25 0 2.25 0 0 Z " fill="#656F90" transform="translate(343,67)"/>
<path d="M0 0 C0.66 0 1.32 0 2 0 C1.58846263 4.97093824 1.20399168 9.44508386 -1 14 C-1.66 14 -2.32 14 -3 14 C-3.34615998 8.34605369 -2.43425238 4.96993194 0 0 Z " fill="#38456F" transform="translate(425,60)"/>
<path d="M0 0 C0.99 0.66 1.98 1.32 3 2 C2.51669316 8.52464229 2.51669316 8.52464229 0.4375 10.4375 C-3.09995046 11.25383472 -6.37166099 11.12094463 -10 11 C-10 10.67 -10 10.34 -10 10 C-8.35 10 -6.7 10 -5 10 C-5 9.34 -5 8.68 -5 8 C-4.360625 7.79375 -3.72125 7.5875 -3.0625 7.375 C-0.65074923 6.10461791 -0.65074923 6.10461791 -0.25 2.875 C-0.1675 1.92625 -0.085 0.9775 0 0 Z " fill="#808080" transform="translate(51,94)"/>
<path d="M0 0 C0.33 0 0.66 0 1 0 C0.9131724 2.12577907 0.8050049 4.25069581 0.6875 6.375 C0.62949219 7.55835937 0.57148438 8.74171875 0.51171875 9.9609375 C0.34285156 10.96382812 0.17398437 11.96671875 0 13 C-0.99 13.66 -1.98 14.32 -3 15 C-3.56229448 4.27475338 -3.56229448 4.27475338 0 0 Z " fill="#3B4771" transform="translate(435,83)"/>
<path d="M0 0 C0.33 0 0.66 0 1 0 C1 1.65 1 3.3 1 5 C1.66 5 2.32 5 3 5 C3 5.66 3 6.32 3 7 C4.32 7.33 5.64 7.66 7 8 C7 8.99 7 9.98 7 11 C4.125 10.6875 4.125 10.6875 1 10 C-1.29404844 6.55892734 -1.26293056 5.03160191 -1 1 C-0.67 0.67 -0.34 0.34 0 0 Z " fill="#434F77" transform="translate(284,46)"/>
<path d="M0 0 C2 3 2 3 1.625 5.6875 C1.41875 6.450625 1.2125 7.21375 1 8 C2.32 8.66 3.64 9.32 5 10 C5 10.33 5 10.66 5 11 C2.125 11.125 2.125 11.125 -1 11 C-1.66 10.34 -2.32 9.68 -3 9 C-2.67582137 5.19090105 -2.14418558 3.21627837 0 0 Z " fill="#697292" transform="translate(290,98)"/>
<path d="M0 0 C0.66 0 1.32 0 2 0 C2.33 1.32 2.66 2.64 3 4 C2.34515625 4.38800781 1.6903125 4.77601562 1.015625 5.17578125 C-1.23981033 6.83325291 -1.23981033 6.83325291 -1.390625 9.48046875 C-1.34421875 10.37378906 -1.2978125 11.26710938 -1.25 12.1875 C-1.21390625 13.08855469 -1.1778125 13.98960938 -1.140625 14.91796875 C-1.09421875 15.60503906 -1.0478125 16.29210937 -1 17 C-1.99 16.34 -2.98 15.68 -4 15 C-4.56737589 7.85106383 -4.56737589 7.85106383 -2 4 C-1.34 4 -0.68 4 0 4 C0 2.68 0 1.36 0 0 Z " fill="#786F6E" transform="translate(31,29)"/>
<path d="M0 0 C0.99 0 1.98 0 3 0 C2.88490339 1.41750563 2.75746342 2.83401169 2.625 4.25 C2.55539062 5.03890625 2.48578125 5.8278125 2.4140625 6.640625 C1.98492887 9.085877 1.21399362 10.84836903 0 13 C-0.66 12.34 -1.32 11.68 -2 11 C-1.68603757 7.04407344 -1.25172182 3.75516546 0 0 Z " fill="#5E698A" transform="translate(447,22)"/>
<path d="M0 0 C0 3 0 3 -1.42578125 4.60546875 C-2.35970703 5.38857422 -2.35970703 5.38857422 -3.3125 6.1875 C-3.92738281 6.71730469 -4.54226563 7.24710938 -5.17578125 7.79296875 C-7 9 -7 9 -10 9 C-9.6121322 6.51339545 -9.29037521 5.27654781 -7.44140625 3.515625 C-6.82136719 3.09796875 -6.20132812 2.6803125 -5.5625 2.25 C-4.94503906 1.82203125 -4.32757813 1.3940625 -3.69140625 0.953125 C-2 0 -2 0 0 0 Z " fill="#465279" transform="translate(299,29)"/>
<path d="M0 0 C0 2 0 4 0 6 C-3.28519475 7.09506492 -5.73663415 7.09960608 -9.1875 7.0625 C-10.81751953 7.04896484 -10.81751953 7.04896484 -12.48046875 7.03515625 C-13.31191406 7.02355469 -14.14335937 7.01195313 -15 7 C-12.59688402 4.59688402 -11.9039073 4.76661394 -8.625 4.625 C-5.18054714 4.33102898 -4.22881459 4.18416784 -1.4375 1.9375 C-0.963125 1.298125 -0.48875 0.65875 0 0 Z " fill="#9298B0" transform="translate(189,84)"/>
<path d="M0 0 C3.21524305 1.40844718 5.32183868 3.10344786 7.75 5.625 C8.67039062 6.57246094 8.67039062 6.57246094 9.609375 7.5390625 C10.29773438 8.26222656 10.29773438 8.26222656 11 9 C10.67 9.99 10.34 10.98 10 12 C9.67 11.34 9.34 10.68 9 10 C8.34 10 7.68 10 7 10 C6.67 9.34 6.34 8.68 6 8 C5.01 7.67 4.02 7.34 3 7 C1.3125 3.4375 1.3125 3.4375 0 0 Z " fill="#C08485" transform="translate(47,45)"/>
<path d="M0 0 C0.66 0 1.32 0 2 0 C2.36923077 6.4 2.36923077 6.4 0.5 9.4375 C0.005 9.953125 -0.49 10.46875 -1 11 C-2.32 10.67 -3.64 10.34 -5 10 C-3.625 7.5 -3.625 7.5 -2 5 C-1.34 5 -0.68 5 0 5 C0 3.35 0 1.7 0 0 Z " fill="#445078" transform="translate(371,54)"/>
<path d="M0 0 C1.9375 0.375 1.9375 0.375 4 1 C5.4783226 3.95664519 5.06032783 6.74229737 5 10 C5.66 10.33 6.32 10.66 7 11 C6.01 11 5.02 11 4 11 C3.67 10.34 3.34 9.68 3 9 C2.34 8.67 1.68 8.34 1 8 C0.40644386 5.35139573 0.25790731 2.70802678 0 0 Z " fill="#626B8D" transform="translate(400,55)"/>
<path d="M0 0 C1.66519519 0.34060811 3.33157466 0.67558396 5 1 C5 1.33 5 1.66 5 2 C0.71 2.66 -3.58 3.32 -8 4 C-8 3.34 -8 2.68 -8 2 C-8.66 1.67 -9.32 1.34 -10 1 C-3.86350148 -1.37091988 -3.86350148 -1.37091988 0 0 Z " fill="#697392" transform="translate(325,16)"/>
<path d="M0 0 C3.48670834 1.1094072 6.77484237 2.26337666 10 4 C9.67 4.66 9.34 5.32 9 6 C9 6.66 9 7.32 9 8 C5.66666667 6.33333333 2.33333333 4.66666667 -1 3 C-0.67 2.01 -0.34 1.02 0 0 Z " fill="#A7A7A7" transform="translate(85,10)"/>
<path d="M0 0 C0.94786377 0.01571045 1.89572754 0.0314209 2.87231445 0.04760742 C3.9003418 0.05727539 4.92836914 0.06694336 5.98754883 0.0769043 C7.59533203 0.11460938 7.59533203 0.11460938 9.2355957 0.15307617 C10.31905273 0.16661133 11.40250977 0.18014648 12.51879883 0.1940918 C15.19572975 0.22946974 17.87166408 0.27883429 20.5480957 0.34057617 C20.2180957 1.00057617 19.8880957 1.66057617 19.5480957 2.34057617 C7.1730957 2.83557617 7.1730957 2.83557617 -5.4519043 3.34057617 C-2.4519043 0.34057617 -2.4519043 0.34057617 0 0 Z " fill="#D1D1D1" transform="translate(51.451904296875,3.659423828125)"/>
<path d="M0 0 C1.19882812 0.07250977 1.19882812 0.07250977 2.421875 0.14648438 C3.246875 0.20255859 4.071875 0.25863281 4.921875 0.31640625 C5.76234375 0.36861328 6.6028125 0.42082031 7.46875 0.47460938 C9.5368102 0.60386314 11.6043972 0.74064899 13.671875 0.87890625 C13.671875 1.20890625 13.671875 1.53890625 13.671875 1.87890625 C6.081875 2.20890625 -1.508125 2.53890625 -9.328125 2.87890625 C-8.328125 0.87890625 -8.328125 0.87890625 -6.53613281 0.24633789 C-4.26032852 -0.13237567 -2.29972052 -0.14783918 0 0 Z " fill="#A9A9A9" transform="translate(54.328125,6.12109375)"/>
<path d="M0 0 C0 0.66 0 1.32 0 2 C-3.90028225 4.60018816 -7.47434569 4.15085514 -12 4 C-11.01 3.67 -10.02 3.34 -9 3 C-9 2.34 -9 1.68 -9 1 C-5.8035914 -0.06546953 -3.34252724 -0.07427838 0 0 Z " fill="#414E76" transform="translate(302,104)"/>
<path d="M0 0 C-1.37154504 2.95409701 -2.98863724 5.44008376 -5 8 C-5.99 7.67 -6.98 7.34 -8 7 C-6.6875 4.0625 -6.6875 4.0625 -5 1 C-2 0 -2 0 0 0 Z " fill="#48547A" transform="translate(298,93)"/>
<path d="M0 0 C1.32 0.66 2.64 1.32 4 2 C2.5511811 5.74278215 2.5511811 5.74278215 0.125 6.875 C-2.47386397 7.02787435 -3.8019253 6.33454536 -6 5 C-4 3.66666667 -2 2.33333333 0 1 C0 0.67 0 0.34 0 0 Z " fill="#677191" transform="translate(400,66)"/>
<path d="M0 0 C0.33 0 0.66 0 1 0 C1.42765417 6.41481258 -0.14256832 11.88595404 -2 18 C-2.33 18 -2.66 18 -3 18 C-3.05416188 16.39620659 -3.09286638 14.79188594 -3.125 13.1875 C-3.14820312 12.29417969 -3.17140625 11.40085937 -3.1953125 10.48046875 C-3 8 -3 8 -1 5 C-0.61500109 3.34450469 -0.27206865 1.6777567 0 0 Z " fill="#999291" transform="translate(26,38)"/>
<path d="M0 0 C5.4389165 -0.21755666 9.87080814 -0.10428384 15 2 C12 4 12 4 9.08203125 3.5390625 C8.00308594 3.23742188 6.92414063 2.93578125 5.8125 2.625 C4.72582031 2.32851563 3.63914063 2.03203125 2.51953125 1.7265625 C1.68808594 1.48679687 0.85664063 1.24703125 0 1 C0 0.67 0 0.34 0 0 Z " fill="#8D95AD" transform="translate(176,30)"/>
<path d="M0 0 C0.99 0.33 1.98 0.66 3 1 C2.67 3.64 2.34 6.28 2 9 C1.01 9 0.02 9 -1 9 C-1.66 9.99 -2.32 10.98 -3 12 C-2.49202991 7.6822542 -1.80317221 3.96697886 0 0 Z " fill="#AFAFAF" transform="translate(17,30)"/>
<path d="M0 0 C0.99 0.99 1.98 1.98 3 3 C-0.4352048 5.29013653 -1.985331 5.17842973 -6 5 C-6 4.67 -6 4.34 -6 4 C-8.97 3.505 -8.97 3.505 -12 3 C-12 2.67 -12 2.34 -12 2 C-10.95199219 1.90912109 -10.95199219 1.90912109 -9.8828125 1.81640625 C-8.97273438 1.73261719 -8.06265625 1.64882812 -7.125 1.5625 C-6.22007813 1.48128906 -5.31515625 1.40007812 -4.3828125 1.31640625 C-1.98889139 1.13010715 -1.98889139 1.13010715 0 0 Z " fill="#BFBFBF" transform="translate(101,110)"/>
<path d="M0 0 C0.33 1.32 0.66 2.64 1 4 C1.66 4 2.32 4 3 4 C2.67 6.31 2.34 8.62 2 11 C1.01 11 0.02 11 -1 11 C-0.67 7.37 -0.34 3.74 0 0 Z " fill="#636D8E" transform="translate(350,105)"/>
<path d="M0 0 C1.32 0 2.64 0 4 0 C5.35439668 2.70879335 5.06501451 5.00933268 5 8 C4.01 8 3.02 8 2 8 C2 6.02 2 4.04 2 2 C1.01 1.67 0.02 1.34 -1 1 C-0.67 0.67 -0.34 0.34 0 0 Z " fill="#36436E" transform="translate(387,51)"/>
<path d="M0 0 C0.33 0 0.66 0 1 0 C1.66 2.97 2.32 5.94 3 9 C2.01 9.66 1.02 10.32 0 11 C0 10.01 0 9.02 0 8 C-0.66 8 -1.32 8 -2 8 C-1.125 1.125 -1.125 1.125 0 0 Z " fill="#CD8F8F" transform="translate(44,35)"/>
<path d="M0 0 C0.33 0 0.66 0 1 0 C1.02687279 1.81242052 1.04633715 3.62495233 1.0625 5.4375 C1.07410156 6.44683594 1.08570312 7.45617187 1.09765625 8.49609375 C1 11 1 11 0 12 C-1.66617115 12.04063832 -3.33388095 12.042721 -5 12 C-4.34 11.67 -3.68 11.34 -3 11 C-1.25800299 7.41353557 -0.54880026 3.93306853 0 0 Z " fill="#767676" transform="translate(106,101)"/>
<path d="M0 0 C0.66 0.33 1.32 0.66 2 1 C2 3.97 2 6.94 2 10 C1.67 9.01 1.34 8.02 1 7 C-0.32 7 -1.64 7 -3 7 C-2.25 2.25 -2.25 2.25 0 0 Z " fill="#9B9B9B" transform="translate(108,85)"/>
<path d="M0 0 C2.4375 0.6875 2.4375 0.6875 5 2 C5.8125 4.625 5.8125 4.625 6 7 C2.62496331 5.8141763 0.35277269 4.72426311 -2 2 C-1.34 2 -0.68 2 0 2 C0 1.34 0 0.68 0 0 Z " fill="#6A7393" transform="translate(310,63)"/>
<path d="M0 0 C0.99 0.33 1.98 0.66 3 1 C2.67 2.98 2.34 4.96 2 7 C1.34 7 0.68 7 0 7 C-0.33 7.99 -0.66 8.98 -1 10 C-2.25 3.375 -2.25 3.375 0 0 Z " fill="#34426C" transform="translate(337,58)"/>
<path d="M0 0 C0.33 0 0.66 0 1 0 C1.28875 1.093125 1.5775 2.18625 1.875 3.3125 C2.81893204 7.04013845 2.81893204 7.04013845 5 10 C5.125 12.6875 5.125 12.6875 5 15 C4.01 15 3.02 15 2 15 C0.73694665 9.92523206 -0.27036084 5.27203646 0 0 Z " fill="#A7A3A1" transform="translate(96,33)"/>
<path d="M0 0 C0.33 0 0.66 0 1 0 C1 3.3 1 6.6 1 10 C0.01 10 -0.98 10 -2 10 C-1.85950482 8.52031676 -1.71245174 7.04125484 -1.5625 5.5625 C-1.48128906 4.73878906 -1.40007812 3.91507812 -1.31640625 3.06640625 C-1 1 -1 1 0 0 Z " fill="#1D2C5C" transform="translate(373,89)"/>
<path d="M0 0 C0.33 0.66 0.66 1.32 1 2 C1.66 2.33 2.32 2.66 3 3 C-0.1749094 4.9078584 -2.10585211 5.1609041 -5.75 4.625 C-6.54921875 4.51414062 -7.3484375 4.40328125 -8.171875 4.2890625 C-8.77515625 4.19367188 -9.3784375 4.09828125 -10 4 C-10 3.67 -10 3.34 -10 3 C-9.04287109 2.80083984 -9.04287109 2.80083984 -8.06640625 2.59765625 C-7.24011719 2.42105469 -6.41382813 2.24445313 -5.5625 2.0625 C-4.73878906 1.88847656 -3.91507813 1.71445313 -3.06640625 1.53515625 C-1.02338796 1.19247006 -1.02338796 1.19247006 0 0 Z " fill="#9DA3B9" transform="translate(145,86)"/>
<path d="M0 0 C0.66 0.33 1.32 0.66 2 1 C1.67 1.99 1.34 2.98 1 4 C0.96045766 6.33299825 0.95598268 8.66708189 1 11 C0.67 11 0.34 11 0 11 C-0.33 9.35 -0.66 7.7 -1 6 C-1.99 6.495 -1.99 6.495 -3 7 C-3.33 5.68 -3.66 4.36 -4 3 C-2.68 2.01 -1.36 1.02 0 0 Z " fill="#7B84A0" transform="translate(335,59)"/>
<path d="M0 0 C3.3 0 6.6 0 10 0 C10 0.66 10 1.32 10 2 C7.69 2 5.38 2 3 2 C3 2.66 3 3.32 3 4 C2.34 4 1.68 4 1 4 C0.67 2.68 0.34 1.36 0 0 Z " fill="#746B6A" transform="translate(73,20)"/>
<path d="M0 0 C1.2065625 0.0309375 1.2065625 0.0309375 2.4375 0.0625 C2.1075 2.0425 1.7775 4.0225 1.4375 6.0625 C1.1075 5.4025 0.7775 4.7425 0.4375 4.0625 C-0.2225 4.0625 -0.8825 4.0625 -1.5625 4.0625 C-1.8925 4.7225 -2.2225 5.3825 -2.5625 6.0625 C-2.94468767 4.40635343 -3.27645102 2.73792976 -3.5625 1.0625 C-2.5625 0.0625 -2.5625 0.0625 0 0 Z " fill="#687293" transform="translate(426.5625,55.9375)"/>
<path d="M0 0 C0 0.33 0 0.66 0 1 C-2.31 1 -4.62 1 -7 1 C-7 1.66 -7 2.32 -7 3 C-8.98 3.99 -8.98 3.99 -11 5 C-11.99 4.34 -12.98 3.68 -14 3 C-8.99067246 -0.00559652 -5.67276511 -0.29341888 0 0 Z " fill="#9AA0B5" transform="translate(143,30)"/>
<path d="M0 0 C0.33 2.64 0.66 5.28 1 8 C0.01 8 -0.98 8 -2 8 C-2.33 5.69 -2.66 3.38 -3 1 C-1 0 -1 0 0 0 Z " fill="#404D76" transform="translate(423,76)"/>
<path d="M0 0 C0.33 0 0.66 0 1 0 C1 1.98 1 3.96 1 6 C2.65 5.67 4.3 5.34 6 5 C6 5.66 6 6.32 6 7 C3.1875 7.625 3.1875 7.625 0 8 C-0.99 7.34 -1.98 6.68 -3 6 C-3 5.34 -3 4.68 -3 4 C-2.01 4 -1.02 4 0 4 C0 2.68 0 1.36 0 0 Z " fill="#05164B" transform="translate(403,60)"/>
<path d="M0 0 C2.31 0.33 4.62 0.66 7 1 C7 1.99 7 2.98 7 4 C4.69 3.67 2.38 3.34 0 3 C0 2.01 0 1.02 0 0 Z " fill="#435077" transform="translate(303,61)"/>
<path d="M0 0 C0.33 0 0.66 0 1 0 C1 1.98 1 3.96 1 6 C1.66 6 2.32 6 3 6 C2.67 7.32 2.34 8.64 2 10 C1.01 10 0.02 10 -1 10 C-0.67 6.7 -0.34 3.4 0 0 Z " fill="#7A829E" transform="translate(368,106)"/>
<path d="M0 0 C4.67692308 1.47692308 4.67692308 1.47692308 6.3125 4.125 C6.539375 4.74375 6.76625 5.3625 7 6 C6.34 6.66 5.68 7.32 5 8 C2.525 4.04 2.525 4.04 0 0 Z " fill="#848484" transform="translate(92,15)"/>
<path d="M0 0 C3 1 3 1 4 3 C4.039992 4.99960012 4.04346799 7.00047242 4 9 C3.34 9 2.68 9 2 9 C1.34 6.03 0.68 3.06 0 0 Z " fill="#747474" transform="translate(112,66)"/>
<path d="M0 0 C0.33 0.66 0.66 1.32 1 2 C-0.0625 4.625 -0.0625 4.625 -2 7 C-5.1875 7.3125 -5.1875 7.3125 -8 7 C-8 6.67 -8 6.34 -8 6 C-6.35 6 -4.7 6 -3 6 C-3.33 5.01 -3.66 4.02 -4 3 C-2.68 2.01 -1.36 1.02 0 0 Z " fill="#616B8D" transform="translate(412,61)"/>
<path d="M0 0 C0.66 0 1.32 0 2 0 C1.67 2.97 1.34 5.94 1 9 C0.67 8.01 0.34 7.02 0 6 C-0.66 6 -1.32 6 -2 6 C-1.34 4.02 -0.68 2.04 0 0 Z " fill="#445077" transform="translate(425,60)"/>
<path d="M0 0 C1.65 1.65 3.3 3.3 5 5 C5.66 4.67 6.32 4.34 7 4 C7 4.99 7 5.98 7 7 C4.625 7.1875 4.625 7.1875 2 7 C0 4 0 4 0 0 Z " fill="#766E6C" transform="translate(24,53)"/>
<path d="M0 0 C0.99 0 1.98 0 3 0 C3.33 2.31 3.66 4.62 4 7 C3.67 5.68 3.34 4.36 3 3 C2.34 3 1.68 3 1 3 C1 4.65 1 6.3 1 8 C0.67 8 0.34 8 0 8 C-1.125 2.25 -1.125 2.25 0 0 Z " fill="#9299B1" transform="translate(370,51)"/>
<path d="M0 0 C0.99 0 1.98 0 3 0 C3 2.31 3 4.62 3 7 C2.34 6.34 1.68 5.68 1 5 C0.34 5.99 -0.32 6.98 -1 8 C-0.67 5.36 -0.34 2.72 0 0 Z " fill="#7D84A1" transform="translate(379,45)"/>
<path d="M0 0 C0.99 0 1.98 0 3 0 C3 2.64 3 5.28 3 8 C2.34 6.68 1.68 5.36 1 4 C0.34 5.32 -0.32 6.64 -1 8 C-0.67 5.36 -0.34 2.72 0 0 Z " fill="#848CA7" transform="translate(283,43)"/>
<path d="M0 0 C0.625 1.8125 0.625 1.8125 1 4 C0.01 5.485 0.01 5.485 -1 7 C-1.33 6.01 -1.66 5.02 -2 4 C-2.99 4.33 -3.98 4.66 -5 5 C-4.1875 3.0625 -4.1875 3.0625 -3 1 C-2.01 0.67 -1.02 0.34 0 0 Z " fill="#5A6487" transform="translate(131,33)"/>
<path d="M0 0 C2 3 2 3 1.625 5.1875 C1.41875 5.785625 1.2125 6.38375 1 7 C0.01 6.67 -0.98 6.34 -2 6 C-2.33 4.35 -2.66 2.7 -3 1 C-2.01 0.67 -1.02 0.34 0 0 Z " fill="#737B9A" transform="translate(333,17)"/>
<path d="M0 0 C1.37478516 0.01740234 1.37478516 0.01740234 2.77734375 0.03515625 C3.69644531 0.04417969 4.61554687 0.05320312 5.5625 0.0625 C6.27277344 0.07410156 6.98304687 0.08570312 7.71484375 0.09765625 C7.71484375 0.42765625 7.71484375 0.75765625 7.71484375 1.09765625 C7.09996094 1.21882813 6.48507813 1.34 5.8515625 1.46484375 C5.04332031 1.63242187 4.23507813 1.8 3.40234375 1.97265625 C2.60183594 2.13507812 1.80132812 2.2975 0.9765625 2.46484375 C-1.53816743 3.04244624 -1.53816743 3.04244624 -4.28515625 5.09765625 C-3.16461059 0.13523977 -3.16461059 0.13523977 0 0 Z " fill="#706765" transform="translate(45.28515625,17.90234375)"/>
<path d="M0 0 C3 1 3 1 5 4 C5 4.99 5 5.98 5 7 C3.0625 6.3125 3.0625 6.3125 1 5 C0.25 2.375 0.25 2.375 0 0 Z " fill="#7C7C7C" transform="translate(27,92)"/>
<path d="M0 0 C0.66 0.66 1.32 1.32 2 2 C1.75 4.0625 1.75 4.0625 1 6 C0.01 6.495 0.01 6.495 -1 7 C-1 6.34 -1 5.68 -1 5 C-1.66 4.67 -2.32 4.34 -3 4 C-2.01 2.68 -1.02 1.36 0 0 Z " fill="#656E8F" transform="translate(356,63)"/>
<path d="M0 0 C1.65 0.33 3.3 0.66 5 1 C5 1.99 5 2.98 5 4 C2.69 3.67 0.38 3.34 -2 3 C-1.34 2.67 -0.68 2.34 0 2 C0 1.34 0 0.68 0 0 Z " fill="#566085" transform="translate(291,55)"/>
<path d="M0 0 C0.33 0 0.66 0 1 0 C1 1.98 1 3.96 1 6 C0.01 6.495 0.01 6.495 -1 7 C-1 7.99 -1 8.98 -1 10 C-1.99 9.34 -2.98 8.68 -4 8 C-3.67 7.01 -3.34 6.02 -3 5 C-2.01 5 -1.02 5 0 5 C0 3.35 0 1.7 0 0 Z " fill="#878EA9" transform="translate(375,66)"/>
<path d="M0 0 C2 3 2 3 1.625 5.6875 C1.41875 6.450625 1.2125 7.21375 1 8 C0.67 7.01 0.34 6.02 0 5 C-0.66 5 -1.32 5 -2 5 C-2 3.68 -2 2.36 -2 1 C-1.34 0.67 -0.68 0.34 0 0 Z " fill="#677191" transform="translate(363,56)"/>
<path d="M0 0 C1.65 0 3.3 0 5 0 C4.67 1.65 4.34 3.3 4 5 C2.35 4.67 0.7 4.34 -1 4 C-0.67 2.68 -0.34 1.36 0 0 Z " fill="#848BA5" transform="translate(415,49)"/>
<path d="M0 0 C2.1875 0.3125 2.1875 0.3125 4 1 C3.01 1.33 2.02 1.66 1 2 C1.66 2.66 2.32 3.32 3 4 C1.02 4.99 1.02 4.99 -1 6 C-1 5.34 -1 4.68 -1 4 C-1.66 3.67 -2.32 3.34 -3 3 C-1.75 1.4375 -1.75 1.4375 0 0 Z " fill="#858CA6" transform="translate(386,50)"/>
<path d="M0 0 C0.99 0 1.98 0 3 0 C3 1.65 3 3.3 3 5 C2.01 5.33 1.02 5.66 0 6 C0 4.02 0 2.04 0 0 Z " fill="#556084" transform="translate(361,45)"/>
<path d="" fill="#FFFFFF" transform="translate(0,0)"/>
<path d="M0 0 C2 1 2 1 2 1 Z " fill="#FFFFFF" transform="translate(47,100)"/>
<path d="M0 0 C2 1 2 1 2 1 Z " fill="#FFFFFF" transform="translate(56,3)"/>
<path d="" fill="#FFFFFF" transform="translate(0,0)"/>
<path d="" fill="#FFFFFF" transform="translate(0,0)"/>
<path d="" fill="#FFFFFF" transform="translate(0,0)"/>
<path d="" fill="#FFFFFF" transform="translate(0,0)"/>
<path d="" fill="#FFFFFF" transform="translate(0,0)"/>
<path d="" fill="#FFFFFF" transform="translate(0,0)"/>
<path d="" fill="#FFFFFF" transform="translate(0,0)"/>
<path d="" fill="#FFFFFF" transform="translate(0,0)"/>
<path d="" fill="#FFFFFF" transform="translate(0,0)"/>
<path d="" fill="#FFFFFF" transform="translate(0,0)"/>
<path d="" fill="#FFFFFF" transform="translate(0,0)"/>
</svg>
